<svg width="280" height="37" viewBox="0 0 280 37" fill="none" xmlns="http://www.w3.org/2000/svg"><path d="M.238.734c1.068.13 2.149.222 3.242.274a61.026 61.026 0 006.172 0 76.375 76.375 0 003.282-.156c.99-.053 2.109-.118 3.359-.196a818.37 818.37 0 013.906-.234l.235 3.398c0 .235.013.534.039.899V5.89c.026.468.052 1.015.078 1.64a63.609 63.609 0 00-4.414 4.18 43.561 43.561 0 00-1.64 1.797 27.7 27.7 0 00-1.915 2.578 79.737 79.737 0 00-1.914 2.93 29.785 29.785 0 00-1.406 2.539c-.365.729-.521 1.185-.469 1.367.026.13.286.208.781.234.495 0 1.094-.026 1.797-.078.73-.052 1.524-.13 2.383-.234.885-.13 1.706-.26 2.46-.39a37.178 37.178 0 002.071-.47c.6-.156.99-.312 1.172-.468.234-.209.495-.586.781-1.133.26-.469.547-1.12.86-1.953.338-.86.716-2.006 1.133-3.438.025 1.068.038 1.98.038 2.735.027.755.066 1.393.118 1.914.026.599.065 1.093.117 1.484.026.417.078.885.156 1.406l.195 1.68c.079.677.183 1.432.313 2.266-1.875-.235-3.45-.391-4.727-.47a67.122 67.122 0 00-3.085-.195 30.205 30.205 0 00-2.188 0c-.573.079-1.354.196-2.344.352-.833.13-1.94.339-3.32.625-1.38.26-3.112.612-5.195 1.055a35.657 35.657 0 00-.157-1.29c-.052-.364-.104-.69-.156-.976-.052-.286-.104-.56-.156-.82-.052-.235-.117-.56-.195-.977a13.513 13.513 0 00-.274-1.328c-.104-.547-.234-1.224-.39-2.031a280.922 280.922 0 003.867-4.063 171.296 171.296 0 002.5-2.734c.729-.833 1.302-1.497 1.718-1.992.391-.495.899-1.094 1.524-1.797a79.377 79.377 0 012.031-2.227 360.09 360.09 0 013.008-3.242 36.085 36.085 0 00-3.36 0c-1.015.052-1.9.13-2.656.235-.885.104-1.705.247-2.46.43-.704.208-1.42.546-2.15 1.015-.624.39-1.301.937-2.03 1.64-.73.704-1.42 1.615-2.07 2.735a131.45 131.45 0 01-.118-2.188A66.514 66.514 0 00.63 5.656c0-.286-.026-.664-.078-1.133-.052-.39-.104-.885-.156-1.484A91.014 91.014 0 01.238.734zm24.727 9.805l7.187.078c-.416 1.589-.729 2.943-.937 4.063-.182 1.12-.3 2.057-.352 2.812-.104.86-.13 1.589-.078 2.188.078.547.209 1.133.39 1.758.157.52.391 1.12.704 1.796.312.677.73 1.354 1.25 2.032a5.812 5.812 0 00-1.016-.235 17.516 17.516 0 00-1.015-.117 7.65 7.65 0 00-1.094 0c-.365.026-.768.065-1.211.117-.365.052-.807.117-1.328.196-.521.078-1.068.182-1.64.312.39-1.172.69-2.187.898-3.047.234-.86.403-1.575.508-2.148.104-.677.169-1.224.195-1.64v-1.759-1.953c0-.625-.013-1.172-.04-1.64-.025-.495-.077-.808-.155-.938l-.391-.39c-.156-.13-.39-.313-.703-.547a15.14 15.14 0 00-1.172-.938zm2.773-6.016c.547-.286 1.094-.364 1.64-.234.574.13 1.017.378 1.329.742.313.365.417.795.313 1.29-.079.494-.495.976-1.25 1.445-.756.442-1.42.599-1.993.468-.573-.13-.976-.403-1.21-.82-.235-.417-.274-.898-.118-1.445.156-.573.586-1.055 1.29-1.446zm4.805 3.516c.52.078.99.143 1.406.195.39.026.742.052 1.055.079.338.026.664.039.977.039.286 0 .65-.013 1.093-.04.365-.026.834-.052 1.407-.078.598-.052 1.302-.117 2.109-.195-.052.104-.156.43-.313.977-.156.52-.312 1.171-.468 1.953a39.27 39.27 0 00-.43 2.539 24.055 24.055 0 00-.156 2.734c.026.886.143 1.732.351 2.54.209.78.547 1.419 1.016 1.913.99 1.016 1.862 1.628 2.617 1.836.781.209 1.458.183 2.031-.078a3.412 3.412 0 001.407-1.172c.364-.52.624-1.002.78-1.445.391-1.198.626-2.461.704-3.79.052-1.145-.04-2.421-.273-3.827-.235-1.406-.795-2.839-1.68-4.297.677.052 1.263.091 1.758.117.494.026.924.052 1.289.078.416.026.78.052 1.093.078.287.026.625.026 1.016 0 .339 0 .742-.013 1.211-.039A91.437 91.437 0 0154.183 8c.105 2.552.196 4.83.274 6.836.078 1.98.13 3.737.156 5.273.052 1.51.078 2.826.078 3.946v2.773c-.026 1.797-.104 2.982-.234 3.555-.208.807-.586 1.614-1.133 2.422a8.627 8.627 0 01-1.992 2.148 8.542 8.542 0 01-2.813 1.484c-1.041.365-2.187.495-3.437.391-1.224-.104-2.2-.273-2.93-.508-.703-.208-1.263-.455-1.68-.742-.39-.286-.676-.586-.859-.898a4.373 4.373 0 01-.351-.977 42.963 42.963 0 00-.235-.898 1.51 1.51 0 00-.468-.742 27.071 27.071 0 00-.899-.704 14.622 14.622 0 00-.937-.625 5.52 5.52 0 00-.938-.507l8.32-.47a3.866 3.866 0 00-.507.86c-.105.26-.17.482-.196.664-.026.235-.013.43.04.586.104.313.286.651.546 1.016.287.39.651.69 1.094.898.443.235.964.313 1.563.235.624-.078 1.328-.404 2.109-.977.65-.495 1.198-1.289 1.64-2.383.365-.937.652-2.252.86-3.945.208-1.693.17-3.92-.117-6.68-.469 1.615-1.107 2.852-1.914 3.711-.808.86-1.615 1.485-2.422 1.875a6.876 6.876 0 01-2.93.742c-1.354-.052-2.513-.221-3.477-.507-.963-.313-1.757-.73-2.382-1.25a5.919 5.919 0 01-1.485-1.836 9.75 9.75 0 01-.742-2.422 15.254 15.254 0 01-.234-2.657v-2.539c.026-.78.039-1.484.039-2.109 0-.651-.065-1.172-.196-1.562a6.404 6.404 0 00-.624-1.172 7.092 7.092 0 00-.86-1.094 8.719 8.719 0 00-1.367-1.172zm27.695 4.14c.13-.156.209-.442.235-.859.052-.442.156-.937.312-1.484.182-.547.482-1.12.899-1.719.416-.599 1.093-1.159 2.03-1.68.912-.52 1.798-.833 2.657-.937a7.032 7.032 0 012.461.117 7.98 7.98 0 012.188.86c.703.39 1.34.82 1.914 1.289.39.312.703.768.937 1.367.235.573.417 1.224.547 1.953.13.73.221 1.497.273 2.305.078.78.13 1.55.157 2.304.026.73.039 1.407.039 2.032.026.599.078 1.093.156 1.484.104.573.286 1.068.547 1.484.26.39.547.73.86 1.016.312.26.624.469.937.625.312.156.586.273.82.352.156.078.3.13.43.156.26.104.442.104.547 0-.157.364-.3.677-.43.937s-.235.482-.313.664a7.81 7.81 0 01-.273.508c-.078.156-.17.3-.274.43a3.5 3.5 0 01-.312.43c-.13.156-.26.325-.39.507a6.73 6.73 0 01-.977-.468 44.72 44.72 0 01-.781-.508 10.142 10.142 0 01-.782-.547 4.987 4.987 0 01-.664-.625c-.182-.209-.377-.43-.586-.664a3.89 3.89 0 01-.468-.781c-.157.338-.534.82-1.133 1.445-.573.625-1.328 1.198-2.266 1.719-.937.494-2.031.846-3.281 1.054-1.224.209-2.578.065-4.063-.43a7.067 7.067 0 01-1.836-.898 6.691 6.691 0 01-1.484-1.484 6.03 6.03 0 01-.86-1.953c-.156-.756-.143-1.589.04-2.5.182-.912.508-1.68.976-2.305a5.845 5.845 0 011.68-1.523c.651-.391 1.38-.69 2.188-.899.807-.208 1.64-.351 2.5-.43.677-.026 1.354.014 2.03.118.574.104 1.173.3 1.798.586.625.26 1.159.664 1.601 1.21-.026-1.38-.078-2.474-.156-3.28a37.78 37.78 0 00-.156-1.915c-.104-.52-.196-.885-.274-1.094-.13-.182-.273-.39-.43-.625a2.33 2.33 0 00-.507-.625 2.388 2.388 0 00-.782-.507c-.312-.13-.677-.183-1.093-.157-.443.026-.794.144-1.055.352-.26.208-.469.456-.625.742-.13.26-.208.547-.234.86-.026.312-.013.585.039.82.052.156.13.325.234.508.104.156.248.325.43.507.182.183.43.339.742.47-.599.077-1.133.142-1.601.194-.47.027-.873.066-1.212.118-.39.052-.729.09-1.015.117a9.809 9.809 0 00-1.016.156l-1.25.195c-.495.079-1.067.183-1.718.313.156-.182.299-.352.43-.508.13-.182.247-.338.35-.469.105-.156.21-.3.313-.43zm5.86 4.65a3.994 3.994 0 00-1.407.35 3.595 3.595 0 00-1.25.821 4.851 4.851 0 00-.937 1.21 3.122 3.122 0 00-.352 1.485c0 .547.13 1.029.391 1.446.286.39.651.716 1.094.976.469.26.963.417 1.484.469.547.052 1.08 0 1.602-.156a4.454 4.454 0 001.406-.86 7.67 7.67 0 001.133-1.328c.312-.495.534-.976.664-1.445.13-.495.143-.899.039-1.211-.209-.677-.677-1.146-1.406-1.406-.73-.287-1.55-.404-2.461-.352zM90.434.07c.833.209 1.627.365 2.382.47.756.103 1.42.181 1.993.233.677.079 1.302.105 1.875.079.729 0 1.64-.066 2.734-.196 1.12-.13 2.266-.247 3.437-.351a39.109 39.109 0 013.36-.235c1.094-.052 1.979.013 2.656.196a9.922 9.922 0 012.07.742c.73.312 1.394.716 1.993 1.21a6.106 6.106 0 011.484 1.68c.391.625.612 1.342.664 2.149a6.675 6.675 0 01-.703 2.851c-.365.756-.977 1.537-1.836 2.344-.859.781-2.096 1.38-3.711 1.797.807.104 1.497.287 2.07.547.599.234 1.107.52 1.524.86.442.312.794.663 1.054 1.054.287.39.508.781.665 1.172.39.911.572 1.927.546 3.047-.156 1.458-.455 2.617-.898 3.476-.417.86-.898 1.524-1.445 1.992-.547.47-1.107.795-1.68.977a18.3 18.3 0 01-1.563.43c-.468.104-1.041.156-1.718.156a65.78 65.78 0 01-2.188-.04 64.157 64.157 0 00-2.344-.116 16.99 16.99 0 00-2.304 0c-.6.052-1.328.104-2.188.156l-2.734.195c-1.094.052-2.37.117-3.828.196.286-.209.52-.443.703-.703.208-.287.377-.534.508-.743.13-.26.247-.508.351-.742.078-.208.144-.781.196-1.719a96.7 96.7 0 00.117-3.359c.026-1.328.039-2.747.039-4.258a81.834 81.834 0 00-.04-4.414 72.315 72.315 0 00-.156-3.789c-.052-1.12-.13-1.927-.234-2.422a12.109 12.109 0 00-.625-1.68 9.3 9.3 0 00-.898-1.601A9.658 9.658 0 0090.434.07zm8.242 3.985c0 .104.013.455.039 1.054.026.521.052 1.329.078 2.422.052 1.068.117 2.591.195 4.57a5.285 5.285 0 001.914.47c.625 0 1.185-.027 1.68-.079a8.384 8.384 0 001.641-.39 3.328 3.328 0 001.64-1.407c.417-.65.69-1.328.821-2.03.156-.73.195-1.407.117-2.032-.078-.651-.248-1.12-.508-1.406-.495-.443-1.107-.808-1.836-1.094-.625-.235-1.419-.39-2.383-.469-.937-.104-2.07.026-3.398.39zM98.48 22.57c.963.495 1.809.82 2.539.977.729.156 1.341.234 1.835.234.573 0 1.068-.078 1.485-.234a6.834 6.834 0 001.445-.938c.495-.416.86-.898 1.094-1.445.26-.573.364-1.198.312-1.875-.052-.703-.351-1.471-.898-2.305a5.27 5.27 0 00-1.797-1.406c-.625-.286-1.419-.469-2.383-.547-.937-.078-2.096.143-3.476.664l-.156 6.875zm21.328-10.39c.13-.157.208-.443.234-.86.052-.442.156-.937.312-1.484.183-.547.482-1.12.899-1.719.417-.599 1.094-1.159 2.031-1.68.912-.52 1.797-.833 2.656-.937a7.032 7.032 0 012.461.117 7.973 7.973 0 012.188.86c.703.39 1.341.82 1.914 1.289.391.312.703.768.937 1.367.235.573.417 1.224.547 1.953.13.73.222 1.497.274 2.305.078.78.13 1.55.156 2.304.026.73.039 1.407.039 2.032.026.599.078 1.093.156 1.484.104.573.287 1.068.547 1.484.261.39.547.73.86 1.016.312.26.625.469.937.625.313.156.586.273.82.352.157.078.3.13.43.156.26.104.443.104.547 0-.156.364-.3.677-.43.937s-.234.482-.312.664a7.728 7.728 0 01-.274.508 2.41 2.41 0 01-.273.43c-.078.13-.182.273-.313.43-.13.156-.26.325-.39.507a6.734 6.734 0 01-.977-.468 44.657 44.657 0 01-.781-.508 9.962 9.962 0 01-.781-.547 4.927 4.927 0 01-.664-.625c-.183-.209-.378-.43-.586-.664a3.846 3.846 0 01-.469-.781c-.156.338-.534.82-1.133 1.445-.573.625-1.328 1.198-2.266 1.719-.937.494-2.031.846-3.281 1.054-1.224.209-2.578.065-4.062-.43a7.07 7.07 0 01-1.836-.898 6.698 6.698 0 01-1.485-1.484 6.035 6.035 0 01-.859-1.953c-.156-.756-.143-1.589.039-2.5.182-.912.508-1.68.977-2.305a5.832 5.832 0 011.679-1.523 8.221 8.221 0 012.188-.899c.807-.208 1.64-.351 2.5-.43.677-.026 1.354.014 2.031.118.573.104 1.172.3 1.797.586.625.26 1.159.664 1.602 1.21-.027-1.38-.079-2.474-.157-3.28a37.85 37.85 0 00-.156-1.915c-.104-.52-.195-.885-.273-1.094-.131-.182-.274-.39-.43-.625-.13-.234-.3-.442-.508-.625a2.387 2.387 0 00-.781-.507c-.313-.13-.677-.183-1.094-.157-.443.026-.794.144-1.055.352-.26.208-.468.456-.625.742a2.34 2.34 0 00-.234.86c-.026.312-.013.585.039.82.052.156.13.325.234.508.105.156.248.325.43.507.182.183.43.339.742.47a85.81 85.81 0 01-1.601.194c-.469.027-.873.066-1.211.118-.391.052-.729.09-1.016.117a9.796 9.796 0 00-1.015.156l-1.25.195c-.495.079-1.068.183-1.719.313.156-.182.299-.352.43-.508.13-.182.247-.338.351-.469.104-.156.208-.3.313-.43zm5.859 4.648a3.987 3.987 0 00-1.406.352 3.587 3.587 0 00-1.25.82 4.857 4.857 0 00-.938 1.21 3.127 3.127 0 00-.351 1.485c0 .547.13 1.029.39 1.446.287.39.651.716 1.094.976.469.26.964.417 1.484.469.547.052 1.081 0 1.602-.156a4.442 4.442 0 001.406-.86c.443-.416.821-.86 1.133-1.328.313-.495.534-.976.664-1.445.13-.495.143-.899.039-1.211-.208-.677-.677-1.146-1.406-1.406-.729-.287-1.55-.404-2.461-.352zm12.305-7.539c.494.026.937.04 1.328.04.416-.027.768-.053 1.054-.079.339-.026.638-.052.899-.078.391-.052.794-.117 1.211-.195.364-.053.742-.118 1.133-.196.416-.104.82-.221 1.211-.351-.157.39-.287.729-.391 1.015a7.68 7.68 0 00-.234.742c-.079.235-.118.43-.118.586a4.801 4.801 0 00-.039.665c-.026.442-.026 1.158 0 2.148 1.355-1.172 2.487-2.083 3.399-2.734.937-.652 1.679-1.16 2.226-1.524.651-.417 1.159-.69 1.524-.82.963-.156 1.81.065 2.539.664.312.26.612.612.898 1.055.287.416.534.976.742 1.68.209.702.365 1.549.469 2.538.104.964.117 2.123.039 3.477-.547.052-1.041.104-1.484.156-.417.052-.768.091-1.055.117a6.187 6.187 0 01-.937.078l-1.055.118c-.365.052-.82.104-1.367.156-.521.026-1.159.078-1.914.156 1.094-.885 1.797-1.654 2.109-2.305.339-.677.482-1.236.43-1.68-.052-.494-.287-.924-.703-1.288a2.452 2.452 0 00-1.602-.313c-.495.052-1.068.274-1.719.664s-1.341 1.12-2.07 2.188c.052 1.666.104 3.047.156 4.14.078 1.094.144 1.98.196 2.657.078.78.143 1.393.195 1.836.078.39.234.807.469 1.25.182.364.442.768.781 1.21.339.443.781.886 1.328 1.329-1.146-.052-2.083-.052-2.812 0-.443.026-.834.052-1.172.078-.365.052-.755.104-1.172.156-.365.052-.794.104-1.289.156-.469.078-.99.157-1.563.235.209-.287.378-.625.508-1.016.13-.365.234-.716.313-1.055.104-.39.182-.794.234-1.21.026-.365.039-.912.039-1.641.026-.73.013-1.55-.039-2.461-.026-.938-.065-1.901-.117-2.89a75.855 75.855 0 00-.196-2.852 33.459 33.459 0 00-.273-2.305c-.078-.677-.169-1.146-.273-1.406a8.037 8.037 0 00-.469-.938 7.488 7.488 0 00-.586-.898c-.234-.339-.495-.69-.781-1.055zm19.531 1.25l7.187.078c-.416 1.589-.729 2.943-.937 4.063-.182 1.12-.3 2.057-.352 2.812-.104.86-.13 1.589-.078 2.188.078.547.209 1.133.391 1.758.156.52.39 1.12.703 1.796.312.677.729 1.354 1.25 2.032a5.819 5.819 0 00-1.016-.235 17.49 17.49 0 00-1.015-.117 7.652 7.652 0 00-1.094 0c-.365.026-.768.065-1.211.117-.365.052-.807.117-1.328.196a22.43 22.43 0 00-1.641.312c.391-1.172.69-2.187.899-3.047.234-.86.403-1.575.508-2.148.104-.677.169-1.224.195-1.64v-1.759-1.953c0-.625-.013-1.172-.039-1.64-.026-.495-.078-.808-.156-.938l-.391-.39c-.156-.13-.391-.313-.703-.547-.287-.26-.677-.573-1.172-.938zm2.773-6.016c.547-.286 1.094-.364 1.641-.234.573.13 1.016.378 1.328.742.313.365.417.795.313 1.29-.079.494-.495.976-1.25 1.445-.756.442-1.42.599-1.993.468-.573-.13-.976-.403-1.211-.82-.234-.417-.273-.898-.117-1.445.157-.573.586-1.055 1.289-1.446zm24.024 1.172a89.483 89.483 0 00-.625 1.563c-.156.469-.3.885-.43 1.25-.13.416-.247.781-.351 1.094-.105.364-.222.78-.352 1.25-.13.416-.3.937-.508 1.562-.182.599-.403 1.315-.664 2.149-.208-1.25-.586-2.24-1.133-2.97-.547-.755-1.106-1.34-1.679-1.757a6.98 6.98 0 00-2.188-1.016c-1.406-.234-2.422-.208-3.047.078-.625.287-1.041.651-1.25 1.094a8.778 8.778 0 00-.351.703c-.105.26-.196.534-.274.82a3.18 3.18 0 00-.039.86c.026.287.143.52.352.703.13.13.468.313 1.015.547l1.953.742c.782.26 1.602.547 2.461.86.886.312 1.719.625 2.5.937.782.313 1.459.625 2.032.938.573.312.95.599 1.132.859.157.26.326.612.508 1.055.209.416.352.885.43 1.406.104.495.13 1.015.078 1.562a3.904 3.904 0 01-.43 1.563c-.26.52-.677 1.002-1.25 1.445-.546.443-1.289.807-2.226 1.094-1.094.338-2.149.43-3.164.273a14.814 14.814 0 01-2.813-.703 33.702 33.702 0 01-2.187-.898c-.625-.313-1.068-.443-1.328-.39-.287.051-.612.195-.977.429-.364.234-.716.482-1.055.742-.312.234-.586.456-.82.664-.234.182-.351.248-.351.195 0-.052.039-.208.117-.468a9.84 9.84 0 00.312-.938c.13-.39.248-.807.352-1.25a9.3 9.3 0 00.273-1.328c.052-.338.117-.755.196-1.25.052-.443.117-.977.195-1.602.104-.65.221-1.432.351-2.343.131.677.313 1.263.547 1.758.261.494.508.924.742 1.289.287.416.56.768.821 1.054.39.365.846.703 1.367 1.016a16.05 16.05 0 001.641.82 6.222 6.222 0 001.562.39c.495.053.912 0 1.25-.155.339-.157.625-.443.859-.86.261-.416.443-.872.547-1.367.105-.495.144-.963.118-1.406-.027-.469-.144-.846-.352-1.133-.156-.182-.521-.417-1.094-.703a30.534 30.534 0 00-1.992-.938c-.755-.338-1.562-.69-2.422-1.054a71.323 71.323 0 01-2.383-1.094 20.184 20.184 0 01-1.836-1.094c-.468-.364-.729-.69-.781-.976a19.242 19.242 0 01-.117-1.368c-.026-.52 0-1.028.078-1.523.104-.52.287-1.016.547-1.484.286-.47.703-.86 1.25-1.172.365-.209.846-.365 1.445-.469a11.67 11.67 0 011.992-.156c.73-.026 1.485 0 2.266.078.781.052 1.524.13 2.227.234.729.078 1.38.183 1.953.313.599.13 1.054.247 1.367.351.365.13.755.144 1.172.04.364-.079.755-.248 1.172-.508.416-.26.846-.73 1.289-1.407zm19.961-4.14l3.281.195c.911.026 1.667.052 2.266.078.677.026 1.25.026 1.718 0a27.917 27.917 0 001.914-.195 120.16 120.16 0 002.696-.352c1.146-.182 2.565-.416 4.258-.703-.599.6-1.068 1.146-1.407 1.64-.312.47-.56.873-.742 1.212a6.088 6.088 0 00-.43 1.054c-.052.26 0 .912.157 1.954.156 1.041.377 2.278.664 3.71.286 1.407.599 2.917.937 4.532a175.78 175.78 0 001.016 4.492c.338 1.38.638 2.565.898 3.555.287.963.495 1.536.625 1.718.391.547.638.912.742 1.094.105.156.287.3.547.43.105.052.274.13.508.234.208.104.482.235.82.39.365.157.821.34 1.368.548-1.016.052-1.888.09-2.618.117-.729 0-1.328.013-1.796.039-.547.026-1.016.052-1.407.078-.39 0-.859.026-1.406.078a46.03 46.03 0 01-1.836.156c-.729.052-1.588.104-2.578.157.521-.365.938-.69 1.25-.977.339-.312.599-.573.781-.781.209-.26.352-.495.43-.703.052-.235.091-.586.117-1.055a17.02 17.02 0 000-1.64 51.324 51.324 0 00-.195-2.735l-10.274 1.055c-.26.442-.455.833-.586 1.172-.13.312-.221.585-.273.82-.078.286-.104.52-.078.703.052.208.143.456.273.742.131.26.313.573.547.938.261.338.638.742 1.133 1.21a49.925 49.925 0 00-1.992-.038c-.677 0-1.302.013-1.875.039l-1.992.078c-.651.026-1.394.065-2.227.117-.703.052-1.523.117-2.461.195-.963.052-1.992.13-3.086.235.677-.313 1.25-.625 1.719-.938.469-.338.859-.65 1.172-.937.364-.313.677-.612.937-.899.183-.26.547-.86 1.094-1.797.547-.963 1.159-2.096 1.836-3.398a197.194 197.194 0 002.188-4.18 127.667 127.667 0 002.109-4.18 69.647 69.647 0 001.523-3.437c.391-.964.586-1.589.586-1.875-.052-.339-.182-.716-.39-1.133-.183-.364-.469-.781-.86-1.25-.364-.469-.898-.99-1.601-1.562zm12.109 15.43a83.935 83.935 0 00-.43-2.344c-.13-.678-.234-1.237-.312-1.68a21.78 21.78 0 01-.234-1.367c-.079-.365-.17-.834-.274-1.406-.104-.495-.234-1.107-.391-1.836-.13-.756-.299-1.654-.507-2.696a1375.53 1375.53 0 01-3.477 6.914c-.807 1.615-1.393 2.8-1.758 3.555-.442.885-.69 1.406-.742 1.563l8.125-.704zm7.813-13.594l1.953.195c.547.052.989.091 1.328.117.39.026.703.04.937.04.235.025.547.025.938 0 .338-.027.781-.053 1.328-.079.547-.052 1.237-.13 2.07-.234-.182.26-.325.494-.429.703a9.724 9.724 0 00-.274.508l-.234.468-.156.47c-.053.13-.105.286-.157.468-.026.182-.052.377-.078.586h6.016l-.547 3.164-5.508-.313a125.65 125.65 0 00-.273 3.086c-.052.73-.105 1.263-.157 1.602l-.078.703c-.078.99-.156 2.07-.234 3.242-.078 1.146-.104 2.214-.078 3.203.026.99.117 1.823.273 2.5.156.651.43.977.821.977.39 0 .755-.104 1.093-.313a3.41 3.41 0 00.86-.742c.26-.286.455-.573.586-.86.13-.312.195-.546.195-.702 0-.157-.039-.339-.117-.547-.13-.39-.365-.886-.703-1.485.755.183 1.419.365 1.992.547.286.104.547.209.781.313.26.104.56.221.898.351.287.13.652.287 1.094.47.443.181.964.403 1.563.663-.573.104-.99.274-1.25.508a1.122 1.122 0 00-.352.352c-.182.286-.39.677-.625 1.171-.234.47-.586.938-1.055 1.407-.468.468-1.106.885-1.914 1.25-.781.364-1.836.573-3.164.625-1.38.052-2.435-.183-3.164-.703-.703-.521-1.224-1.12-1.562-1.797a6.26 6.26 0 01-.547-2.07 49.895 49.895 0 00-.117-1.368c-.026-.234-.026-.82 0-1.758.026-.937.065-1.966.117-3.086.052-1.145.104-2.24.156-3.28a53.82 53.82 0 00.078-2.345c0-.26.013-.533.039-.82v-.742c.026-.287.039-.56.039-.82l-5.664-.04-.234-2.226 5.703.156a5.71 5.71 0 00-.195-.781 5.412 5.412 0 00-.156-.625 4.069 4.069 0 00-.235-.469c-.104-.13-.221-.273-.351-.43l-.508-.507a22.885 22.885 0 00-.742-.703zm17.031 8.789c.13-.157.208-.443.234-.86.052-.442.156-.937.313-1.484.182-.547.481-1.12.898-1.719.417-.599 1.094-1.159 2.031-1.68.912-.52 1.797-.833 2.657-.937a7.034 7.034 0 012.461.117c.781.182 1.51.469 2.187.86.703.39 1.341.82 1.914 1.289.391.312.703.768.938 1.367.234.573.416 1.224.547 1.953.13.73.221 1.497.273 2.305.078.78.13 1.55.156 2.304.026.73.039 1.407.039 2.032.026.599.078 1.093.157 1.484.104.573.286 1.068.546 1.484.261.39.547.73.86 1.016.312.26.625.469.937.625.313.156.586.273.821.352.156.078.299.13.429.156.261.104.443.104.547 0-.156.364-.299.677-.43.937-.13.26-.234.482-.312.664a7.783 7.783 0 01-.273.508c-.079.156-.17.3-.274.43-.078.13-.182.273-.312.43a8.22 8.22 0 00-.391.507 6.734 6.734 0 01-.977-.468 48.773 48.773 0 01-.781-.508 10.153 10.153 0 01-.781-.547 4.987 4.987 0 01-.664-.625c-.182-.209-.378-.43-.586-.664a3.891 3.891 0 01-.469-.781c-.156.338-.534.82-1.133 1.445-.573.625-1.328 1.198-2.265 1.719-.938.494-2.032.846-3.282 1.054-1.223.209-2.578.065-4.062-.43a7.07 7.07 0 01-1.836-.898 6.673 6.673 0 01-1.484-1.484 6.037 6.037 0 01-.86-1.953c-.156-.756-.143-1.589.039-2.5.183-.912.508-1.68.977-2.305a5.849 5.849 0 011.68-1.523c.651-.391 1.38-.69 2.187-.899a15.677 15.677 0 012.5-.43c.677-.026 1.354.014 2.031.118.573.104 1.172.3 1.797.586.625.26 1.159.664 1.602 1.21-.026-1.38-.078-2.474-.156-3.28a38.826 38.826 0 00-.157-1.915c-.104-.52-.195-.885-.273-1.094-.13-.182-.274-.39-.43-.625a2.314 2.314 0 00-.508-.625 2.377 2.377 0 00-.781-.507c-.312-.13-.677-.183-1.094-.157-.442.026-.794.144-1.054.352a2.427 2.427 0 00-.625.742c-.131.26-.209.547-.235.86-.026.312-.013.585.039.82.052.156.131.325.235.508.104.156.247.325.429.507.183.183.43.339.743.47a85.83 85.83 0 01-1.602.194c-.469.027-.872.066-1.211.118-.391.052-.729.09-1.016.117a9.796 9.796 0 00-1.015.156l-1.25.195c-.495.079-1.068.183-1.719.313.156-.182.3-.352.43-.508.13-.182.247-.338.351-.469.105-.156.209-.3.313-.43zm5.859 4.648a3.992 3.992 0 00-1.406.352 3.596 3.596 0 00-1.25.82 4.857 4.857 0 00-.938 1.21 3.127 3.127 0 00-.351 1.485c0 .547.13 1.029.391 1.446a3.6 3.6 0 001.093.976c.469.26.964.417 1.485.469.547.052 1.08 0 1.601-.156a4.442 4.442 0 001.406-.86c.443-.416.821-.86 1.133-1.328.313-.495.534-.976.664-1.445.131-.495.144-.899.039-1.211-.208-.677-.677-1.146-1.406-1.406-.729-.287-1.549-.404-2.461-.352zm10.703-8.789c.521.078.99.143 1.407.195.39.026.742.052 1.054.079.339.026.664.039.977.039.286 0 .651-.013 1.094-.04.364-.026.833-.052 1.406-.078a220.39 220.39 0 002.109-.195c-.052.104-.156.43-.312.977-.157.52-.313 1.171-.469 1.953-.156.755-.3 1.601-.43 2.539a24.101 24.101 0 00-.156 2.734c.026.886.143 1.732.352 2.54.208.78.546 1.419 1.015 1.913.99 1.016 1.862 1.628 2.617 1.836.782.209 1.459.183 2.032-.078a3.413 3.413 0 001.406-1.172c.364-.52.625-1.002.781-1.445.391-1.198.625-2.461.703-3.79.052-1.145-.039-2.421-.273-3.827-.235-1.406-.794-2.839-1.68-4.297a74.11 74.11 0 001.758.117c.495.026.924.052 1.289.078.417.026.781.052 1.094.078.286.026.625.026 1.015 0 .339 0 .743-.013 1.211-.039A91.68 91.68 0 01279.418 8c.104 2.552.195 4.83.273 6.836.079 1.98.131 3.737.157 5.273.052 1.51.078 2.826.078 3.946v2.773c-.026 1.797-.104 2.982-.235 3.555-.208.807-.586 1.614-1.132 2.422a8.621 8.621 0 01-1.993 2.148 8.533 8.533 0 01-2.812 1.484c-1.042.365-2.188.495-3.438.391-1.224-.104-2.2-.273-2.929-.508-.703-.208-1.263-.455-1.68-.742-.391-.286-.677-.586-.859-.898a4.335 4.335 0 01-.352-.977 43.654 43.654 0 00-.234-.898 1.512 1.512 0 00-.469-.742 27.049 27.049 0 00-.898-.704 14.638 14.638 0 00-.938-.625 5.516 5.516 0 00-.937-.507l8.32-.47a3.84 3.84 0 00-.508.86 3 3 0 00-.195.664c-.026.235-.013.43.039.586.104.313.286.651.547 1.016.286.39.651.69 1.093.898.443.235.964.313 1.563.235.625-.078 1.328-.404 2.109-.977.651-.495 1.198-1.289 1.641-2.383.364-.937.651-2.252.859-3.945.209-1.693.17-3.92-.117-6.68-.469 1.615-1.107 2.852-1.914 3.711-.807.86-1.615 1.485-2.422 1.875a6.874 6.874 0 01-2.93.742c-1.354-.052-2.513-.221-3.476-.507-.964-.313-1.758-.73-2.383-1.25a5.909 5.909 0 01-1.484-1.836 9.721 9.721 0 01-.742-2.422 15.187 15.187 0 01-.235-2.657v-2.539c.026-.78.039-1.484.039-2.109 0-.651-.065-1.172-.195-1.562a6.417 6.417 0 00-.625-1.172 7.1 7.1 0 00-.859-1.094 8.73 8.73 0 00-1.368-1.172z" fill="#C8C8C8"/></svg>