<svg width="131" height="32" viewBox="0 0 131 32" fill="none" xmlns="http://www.w3.org/2000/svg"><path d="M.078 2.54c.86.103 1.64.181 2.344.233a63.9 63.9 0 011.758.157c.573.052 1.08.09 1.523.117.469 0 1.068-.013 1.797-.04.625-.025 1.42-.064 2.383-.116a95.564 95.564 0 003.555-.274c-.678.39-1.238.781-1.68 1.172-.417.39-.742.742-.977 1.055a3.92 3.92 0 00-.625 1.093c-.078.495-.052 1.459.078 2.891.053.6.13 1.341.235 2.227l.469 3.086c.208 1.171.455 2.526.742 4.062.312 1.537.664 3.281 1.054 5.235.521-1.485.95-2.8 1.29-3.946.338-1.172.624-2.174.859-3.008.26-.937.482-1.77.664-2.5.182-.755.403-1.731.664-2.93.208-1.015.482-2.33.82-3.945.339-1.614.756-3.606 1.25-5.976l1.407.195c.13 1.85.26 3.477.39 4.883.156 1.406.287 2.604.39 3.594.105 1.146.21 2.135.313 2.968.104.756.26 1.628.469 2.618.182.833.417 1.862.703 3.086a64.535 64.535 0 001.133 4.062c.469-1.849.885-3.503 1.25-4.96.39-1.46.716-2.748.977-3.868.286-1.12.52-2.083.703-2.89.208-.808.377-1.485.507-2.032.287-1.302.456-2.174.508-2.617a4.058 4.058 0 00-.351-1.445c-.183-.417-.47-.873-.86-1.368-.39-.494-.963-.976-1.718-1.445 1.588.052 2.877.091 3.867.117h7.422c.859-.026 1.953-.065 3.28-.117-1.145.599-2.07 1.146-2.773 1.64-.703.495-1.25.912-1.64 1.25-.469.417-.808.769-1.016 1.055-.208.521-.547 1.693-1.015 3.516a73.96 73.96 0 00-.704 2.93l-.937 4.14c-.339 1.615-.73 3.503-1.172 5.664a859.04 859.04 0 00-1.484 7.344l-6.758-.703-2.89-12.148c-.444 2.213-.795 4.01-1.055 5.39-.26 1.354-.456 2.409-.586 3.164-.157.912-.248 1.576-.274 1.992-.026.365-.052.717-.078 1.055-.026.287-.065.6-.117.938a9.212 9.212 0 01-.117.937H9.14a647.973 647.973 0 00-1.836-7.851 437.08 437.08 0 00-1.407-6.016 266.616 266.616 0 00-1.093-4.375 66.78 66.78 0 00-.782-3.008c-.52-1.875-.898-3.034-1.132-3.476a15.775 15.775 0 00-.704-.743l-.859-.859a61.5 61.5 0 00-1.25-1.21zm50-1.563l.742 9.843c-.208-.911-.534-1.588-.976-2.03-.417-.444-.847-.743-1.29-.9-.52-.182-1.093-.234-1.718-.156a8.69 8.69 0 00-3.867 2.11c-.469.443-.938.976-1.407 1.601-.468.625-.885 1.38-1.25 2.266-.338.86-.611 1.849-.82 2.969-.208 1.12-.312 2.396-.312 3.828.416-1.12.885-2.057 1.406-2.813.52-.78 1.068-1.406 1.64-1.875.6-.495 1.199-.872 1.797-1.133a6.672 6.672 0 011.758-.507c1.328-.209 2.696-.052 4.102.468a6.265 6.265 0 012.695 2.227c.677.963 1.12 2.057 1.328 3.281.209 1.198.196 2.448-.039 3.75a10.05 10.05 0 01-1.289 3.555 8.592 8.592 0 01-2.539 2.773c-1.068.782-2.33 1.25-3.789 1.407-2.188.234-4.14-.104-5.86-1.016-1.692-.885-3.033-2.174-4.023-3.867-.99-1.693-1.55-3.698-1.68-6.016-.13-2.344.274-4.83 1.211-7.46a35.802 35.802 0 011.407-3.4c.52-1.119 1.276-2.187 2.265-3.202.99-1.016 2.305-1.992 3.946-2.93 1.666-.964 3.854-1.888 6.562-2.773zm-8.36 22.617a8.44 8.44 0 00.509 2.226c.26.677.56 1.263.898 1.758.365.495.742.886 1.133 1.172.416.26.807.378 1.172.352.755-.053 1.393-.547 1.914-1.485.547-.963.872-2.24.976-3.828a6.074 6.074 0 00-.312-2.344 9.513 9.513 0 00-.899-2.148c-.364-.625-.768-1.12-1.21-1.485-.417-.39-.795-.572-1.133-.546-.521.078-.99.3-1.407.664-.39.364-.729.833-1.015 1.406-.26.573-.456 1.237-.586 1.992a9.371 9.371 0 00-.04 2.266zM65.548 2.46c.885.078 1.797.312 2.734.703.938.39 1.81.964 2.617 1.719.808.729 1.498 1.653 2.07 2.773.6 1.12.977 2.435 1.134 3.946.26 2.604.09 4.856-.508 6.757-.573 1.901-1.42 3.568-2.54 5a19.956 19.956 0 01-3.867 3.828 69.72 69.72 0 01-4.53 3.125 60.122 60.122 0 01-1.837-1.835l-.703-.704a8.615 8.615 0 00-.703-.78 84.6 84.6 0 00-.86-.938 78.089 78.089 0 01-1.132-1.25c.807.442 1.536.729 2.187.86.677.13 1.25.181 1.72.155a5.188 5.188 0 001.483-.273 13.293 13.293 0 003.165-2.149c.807-.755 1.536-1.692 2.187-2.812.677-1.146 1.042-2.5 1.094-4.063-.834 1.198-1.745 2.058-2.735 2.579-.963.52-1.861.872-2.695 1.054a8.76 8.76 0 01-2.969.117c-.494-.078-1.028-.338-1.601-.78a9.162 9.162 0 01-1.64-1.68c-.522-.704-.99-1.485-1.407-2.344-.39-.86-.664-1.758-.82-2.696a9.781 9.781 0 01-.04-2.89c.157-.99.534-1.94 1.133-2.852.886-1.328 1.72-2.33 2.5-3.008.782-.677 1.537-1.132 2.266-1.367a5.721 5.721 0 012.148-.351c.704.026 1.42.078 2.149.156zm-4.14 7.89a7.93 7.93 0 00-.313 2.188c0 .73.09 1.393.273 1.992.209.6.495 1.12.86 1.563.364.416.82.677 1.367.781.547.13 1.08.052 1.601-.234a5.295 5.295 0 001.485-1.29 7.39 7.39 0 001.172-1.914c.338-.755.56-1.523.664-2.304a6.607 6.607 0 000-1.758 6.477 6.477 0 00-.391-1.797c-.182-.573-.43-1.055-.742-1.445-.287-.39-.625-.625-1.016-.703a2.75 2.75 0 00-1.562.234c-.495.208-.964.547-1.407 1.016a7.45 7.45 0 00-1.21 1.64 8.651 8.651 0 00-.782 2.032zm24.882-8.945c1.198-.026 2.409.248 3.633.82 1.224.573 2.33 1.446 3.32 2.618.99 1.146 1.797 2.59 2.422 4.336.625 1.745.95 3.789.977 6.133.026 1.562-.092 2.981-.352 4.257-.26 1.276-.612 2.422-1.055 3.438-.442.99-.95 1.875-1.523 2.656a14.213 14.213 0 01-1.68 1.953c-.573.521-1.12.938-1.64 1.25-.521.313-.964.521-1.329.625-.468.156-1.028.3-1.68.43-.65.104-1.327.17-2.03.195a8.207 8.207 0 01-2.11-.117 4.905 4.905 0 01-1.797-.625c-.52-.313-1.132-.755-1.836-1.328-.677-.6-1.328-1.406-1.953-2.422-.625-1.042-1.159-2.344-1.601-3.906-.443-1.563-.664-3.477-.664-5.742 0-2.266.26-4.297.78-6.094.548-1.797 1.29-3.32 2.227-4.57.964-1.25 2.11-2.201 3.438-2.852 1.354-.677 2.838-1.029 4.453-1.055zm-5.508 14.531c-.026 1.537.065 2.878.274 4.024.208 1.146.455 2.11.742 2.89.286.782.573 1.407.86 1.876.312.442.546.755.702.937.157.234.443.39.86.469.416.078.86.117 1.328.117a7.855 7.855 0 001.367-.195c.443-.13.781-.3 1.016-.508.13-.13.312-.456.547-.977.26-.52.507-1.198.742-2.03.26-.834.495-1.798.703-2.892.208-1.12.351-2.317.43-3.593a33.18 33.18 0 000-3.946A30.873 30.873 0 0090 8.906c-.156-.911-.338-1.666-.547-2.265-.208-.6-.43-1.003-.664-1.211a2.893 2.893 0 00-1.25-.664 4.484 4.484 0 00-1.445-.157 4.904 4.904 0 00-1.367.274c-.417.156-.743.364-.977.625-.469.52-.885 1.068-1.25 1.64-.365.573-.664 1.263-.898 2.07-.235.808-.43 1.759-.586 2.852-.13 1.068-.209 2.357-.235 3.867zM104.258 1.72c.859.052 1.562.09 2.109.117.573.026 1.029.039 1.367.039.391.026.69.026.899 0h1.015c.391 0 .938.013 1.641.04.729 0 1.68.012 2.852.038a2.221 2.221 0 00-.313.664c-.078.26-.143.521-.195.781-.078.287-.13.6-.156.938a86.742 86.742 0 01-.157 1.953c-.052.755-.13 1.81-.234 3.164-.078 1.328-.182 3.06-.313 5.195.756 0 1.407-.065 1.954-.195.546-.156 1.002-.338 1.367-.547a3.419 3.419 0 001.015-.742l.43-.508c.13-.156.3-.325.508-.508.208-.182.43-.377.664-.585a78.157 78.157 0 00-.117 1.835c-.026.495-.052.912-.078 1.25a22.4 22.4 0 01-.078.938c0 .286-.027.664-.079 1.133-.052.416-.104.976-.156 1.68a99.864 99.864 0 00-.156 2.578c-.261-.521-.508-.925-.742-1.211a4.817 4.817 0 00-.547-.703 2.762 2.762 0 00-.547-.391 7.045 7.045 0 00-.742-.156 6.3 6.3 0 00-1.094-.078 71.766 71.766 0 00-1.641-.079c0 1.537.026 2.774.078 3.711.079.938.157 1.667.235 2.188.104.625.221 1.068.351 1.328.157.234.378.508.664.82.261.287.612.625 1.055 1.016.443.39 1.016.833 1.719 1.328-.599.13-1.172.221-1.719.273-.521.026-1.002.066-1.445.118-.495.052-.964.078-1.406.078-.469 0-1.042.026-1.719.078a81.97 81.97 0 01-2.227.156c-.885.052-1.953.117-3.203.195a9.954 9.954 0 001.055-1.21c.286-.391.508-.73.664-1.016.182-.313.312-.586.391-.82.052-.287.13-.769.234-1.446.078-.573.169-1.367.273-2.383.105-1.015.222-2.356.352-4.023l-10.625.117.195-2.617c1.276-1.823 2.292-3.333 3.047-4.531.781-1.224 1.38-2.214 1.797-2.969.469-.86.807-1.536 1.016-2.031.13-.469.247-.964.351-1.485a15.77 15.77 0 00.391-3.516zm4.297 13.32c.052-.703.091-1.341.117-1.914.052-.599.091-1.12.117-1.563.026-.494.039-.963.039-1.406V8.711 7.07c.026-.652.052-1.38.078-2.188l-5.742 10.234 5.391-.078zm11.718-9.258c.912-.286 1.654-.52 2.227-.703l1.406-.508c.417-.156.729-.3.938-.43l.937-.468 1.407-.703a105.94 105.94 0 012.226-1.172 31.7 31.7 0 00-.469 2.812c-.078.86-.143 1.628-.195 2.305a21.76 21.76 0 00-.117 2.149c-.026.546-.065 1.275-.117 2.187-.026.912-.065 1.901-.118 2.969a1453.53 1453.53 0 00-.156 3.281c-.052 1.12-.091 2.174-.117 3.164 0 .964.013 1.797.039 2.5.052.703.143 1.185.274 1.445.13.313.299.612.507.899.183.26.391.56.625.898.261.313.573.625.938.938-.599.13-1.159.247-1.68.351-.521.078-.976.143-1.367.196-.469.078-.885.143-1.25.195-.391.026-.925.091-1.602.195-.573.078-1.302.183-2.187.313-.886.104-1.979.221-3.281.351.677-.416 1.211-.82 1.601-1.21.417-.391.729-.73.938-1.016.234-.339.377-.664.429-.977.026-.208.065-.768.118-1.68.078-.937.143-2.03.195-3.28.078-1.277.143-2.631.195-4.063.078-1.459.13-2.813.156-4.063a157.5 157.5 0 00.039-3.203c0-.885-.039-1.42-.117-1.601a3.877 3.877 0 00-.468-.625 4.902 4.902 0 00-.743-.665c-.286-.234-.69-.494-1.211-.78z" fill="#C8C8C8"/></svg>