<svg width="432" height="89" viewBox="0 0 432 89" fill="none" xmlns="http://www.w3.org/2000/svg"><path d="M.34 1.484c1.745.209 3.255.365 4.531.47 1.276.077 2.33.142 3.164.194.964.053 1.771.066 2.422.04a58.618 58.618 0 002.773-.196c.99-.078 2.292-.182 3.907-.312 1.614-.157 3.633-.365 6.054-.625.026.599.04 1.185.04 1.758.025.546.052 1.028.078 1.445.026.495.039.95.039 1.367 0 .443-.026 1.003-.078 1.68a41.329 41.329 0 01-.274 2.187c-.104.86-.273 1.888-.508 3.086-.364-1.406-.716-2.539-1.054-3.398-.339-.886-.651-1.589-.938-2.11-.312-.599-.625-1.054-.937-1.367a4.762 4.762 0 00-1.211-.586c-.417-.13-.95-.234-1.602-.312-.625-.078-1.367-.065-2.226.039-.13 3.437-.222 6.224-.274 8.36-.052 2.134-.091 3.801-.117 5-.026 1.431-.04 2.46-.04 3.085.027.885.17 1.758.43 2.617.209.73.547 1.485 1.016 2.266.469.781 1.146 1.471 2.031 2.07h-4.765c-.443 0-.99.026-1.64.078-.548.052-1.25.104-2.11.157-.834.052-1.81.143-2.93.273a17.66 17.66 0 001.484-3.242c.157-.469.274-.886.352-1.25.026-.521.091-1.576.195-3.164.026-.651.052-1.459.078-2.422.053-.964.105-2.11.157-3.438.078-1.328.143-2.851.195-4.57.078-1.745.156-3.71.234-5.898a2.097 2.097 0 00-1.328.039c-.416.13-.781.3-1.093.508a6.99 6.99 0 00-1.055.937 17.943 17.943 0 00-1.133 1.719c-.365.599-.781 1.393-1.25 2.383a71.177 71.177 0 00-1.602 3.593c-.13-1.51-.22-2.747-.273-3.71A493.44 493.44 0 01.965 7.93a39.992 39.992 0 01-.04-1.446c0-.286-.025-.664-.077-1.132C.796 4.96.73 4.453.652 3.828.574 3.178.47 2.396.34 1.484zM30.418 12.5c.677 0 1.38.13 2.11.39.729.235 1.432.547 2.109.938a11.8 11.8 0 011.836 1.211 9.85 9.85 0 011.406 1.211c.65.703 1.094 1.654 1.328 2.852.26 1.171.313 2.382.156 3.632a10.226 10.226 0 01-1.093 3.477c-.573 1.094-1.368 1.901-2.383 2.422-.73.364-1.446.65-2.149.86a16.13 16.13 0 01-2.031.468c-.651.104-1.263.156-1.836.156a24.19 24.19 0 01-1.484-.039c-.782-.052-1.602-.325-2.461-.82a12.965 12.965 0 01-2.383-1.836 12.593 12.593 0 01-1.875-2.383c-.52-.885-.833-1.719-.938-2.5a14.367 14.367 0 01-.078-3.36 6.929 6.929 0 011.133-3.241c.677-.99 1.693-1.81 3.047-2.461 1.38-.652 3.242-.977 5.586-.977zm-1.29 15.156c.287.052.678-.013 1.173-.195.495-.208.976-.534 1.445-.977.495-.442.925-1.002 1.29-1.68.39-.702.624-1.549.702-2.538.078-.964.078-1.85 0-2.657-.052-.807-.169-1.51-.351-2.109-.183-.625-.39-1.133-.625-1.523-.235-.391-.482-.665-.742-.82-.443-.235-.977-.417-1.602-.548-.625-.156-1.159-.13-1.602.079-.208.104-.468.325-.78.664a7.88 7.88 0 00-.938 1.289 10.566 10.566 0 00-.86 1.718 10.534 10.534 0 00-.508 2.032c-.104.703-.13 1.458-.078 2.265.078.808.248 1.576.508 2.305.26.703.625 1.315 1.094 1.836.495.495 1.12.781 1.875.86zm23.75-15.86c.834-.13 1.511-.233 2.032-.312.547-.104.99-.182 1.328-.234.39-.078.69-.143.899-.195.208-.052.508-.13.898-.235.339-.104.781-.221 1.328-.351a91.073 91.073 0 002.07-.625c-.208.26-.377.495-.507.703a3.664 3.664 0 01-.313.469c-.104.156-.195.3-.273.43-.078.13-.156.325-.235.585-.052.209-.117.508-.195.899a12.22 12.22 0 00-.195 1.445c1.406-.885 2.695-1.55 3.867-1.992 1.198-.443 2.24-.755 3.125-.938 1.042-.208 1.98-.286 2.813-.234a8.723 8.723 0 012.89.703c.912.365 1.732.807 2.461 1.328a11.1 11.1 0 011.914 1.719c.547.625.977 1.25 1.29 1.875.208.417.338 1.016.39 1.797.078.781 0 1.614-.234 2.5-.235.885-.652 1.758-1.25 2.617-.573.833-1.394 1.497-2.462 1.992-1.848.834-3.684 1.302-5.507 1.406a12.69 12.69 0 01-2.422-.078 9.901 9.901 0 01-2.461-.664 9.362 9.362 0 01-2.344-1.445c-.755-.651-1.445-1.484-2.07-2.5a70.43 70.43 0 00-.469 3.477c-.078.963-.13 1.77-.156 2.421a23.295 23.295 0 000 1.914c.052.521.156 1.081.312 1.68.13.521.313 1.12.547 1.797.26.703.586 1.432.977 2.188a3.093 3.093 0 00-.664-.118c-.26 0-.534.026-.82.078-.313.052-.665.105-1.055.157-.365.078-.769.169-1.211.273-.365.078-.794.17-1.29.274-.468.13-.95.273-1.445.43.287-.34.508-.73.664-1.173.183-.416.326-.807.43-1.172.104-.442.196-.885.274-1.328.026-.39.065-1.132.117-2.226.078-1.068.143-2.305.195-3.711.052-1.432.091-2.93.117-4.492.052-1.563.078-3.008.078-4.336.026-1.354.026-2.5 0-3.438-.026-.937-.078-1.484-.156-1.64-.104-.183-.3-.378-.586-.586-.234-.183-.573-.365-1.015-.547a14.922 14.922 0 00-1.68-.586zm9.298 7.11a3.693 3.693 0 00-.117 1.758c.104.573.364 1.107.78 1.602.444.494 1.056.937 1.837 1.328.807.364 1.81.638 3.008.82 1.198.182 2.109.156 2.734-.078.625-.234 1.08-.599 1.367-1.094.313-.52.521-1.12.625-1.797.104-.703.234-1.432.39-2.187.157-.73.131-1.471-.077-2.227a7.695 7.695 0 00-.899-2.11c-.364-.624-.781-1.132-1.25-1.523-.442-.416-.833-.625-1.172-.625-.807 0-1.601.209-2.383.625a9.646 9.646 0 00-2.148 1.563 12.686 12.686 0 00-1.719 2.031c-.468.703-.794 1.341-.976 1.914zm18.789 12.188c.26-.39.469-.756.625-1.094.156-.338.286-.625.39-.86.105-.286.183-.546.235-.78.026-.157.039-.613.039-1.368 0-.755-.026-1.706-.078-2.851a287.374 287.374 0 00-.117-3.868c-.026-1.432-.078-2.89-.157-4.375-.052-1.484-.117-2.93-.195-4.335-.052-1.407-.104-2.67-.156-3.79a112.995 112.995 0 00-.157-2.812c-.052-.73-.09-1.146-.117-1.25a1.462 1.462 0 00-.273-.469c-.26-.312-.703-.612-1.328-.898a88.31 88.31 0 003.047-.82c.416-.105.78-.209 1.093-.313l.86-.313c.234-.104.495-.22.781-.351.287-.156.547-.326.781-.508-.13.755-.234 1.484-.312 2.188a82.69 82.69 0 00-.195 1.953 25.483 25.483 0 00-.079 1.953 49.8 49.8 0 00-.234 4.18c0 1.484.013 2.994.039 4.53.026 1.537.078 3.035.156 4.493.078 1.458.156 2.786.235 3.984.104 1.172.195 2.175.273 3.008.104.807.182 1.328.235 1.563.104.39.208.768.312 1.132.104.313.221.639.351.977.13.365.287.651.47.86h-3.79c-.338 0-.664.012-.976.038-.287.026-.586.053-.899.079a7.618 7.618 0 00-.86.117zm10.86-16.914c.13-.157.208-.443.234-.86.052-.442.156-.937.312-1.484.182-.547.482-1.12.898-1.719.417-.599 1.094-1.159 2.032-1.68.911-.52 1.797-.833 2.656-.937a7.033 7.033 0 012.461.117c.781.182 1.51.469 2.187.86.704.39 1.342.82 1.915 1.289.39.312.703.768.937 1.367.234.573.417 1.224.547 1.953.13.73.221 1.497.273 2.305.078.78.131 1.55.157 2.304.026.73.039 1.407.039 2.032.026.599.078 1.093.156 1.484.104.573.286 1.068.547 1.484.26.39.547.73.859 1.016.313.26.625.469.938.625.312.156.586.273.82.352.156.078.299.13.43.156.26.104.442.104.547 0-.157.364-.3.677-.43.937a13 13 0 00-.313.664 7.783 7.783 0 01-.273.508 2.36 2.36 0 01-.274.43c-.078.13-.182.273-.312.43-.13.156-.26.325-.391.507a6.722 6.722 0 01-.976-.468 41.182 41.182 0 01-.781-.508 10.18 10.18 0 01-.782-.547 5.049 5.049 0 01-.664-.625c-.182-.209-.377-.43-.586-.664a3.888 3.888 0 01-.468-.781c-.157.338-.534.82-1.133 1.445-.573.625-1.328 1.198-2.266 1.719-.937.494-2.031.846-3.281 1.054-1.224.209-2.578.065-4.063-.43a7.067 7.067 0 01-1.836-.898 6.691 6.691 0 01-1.484-1.484 6.027 6.027 0 01-.86-1.953c-.156-.756-.143-1.589.04-2.5.182-.912.507-1.68.976-2.305a5.843 5.843 0 011.68-1.523c.651-.391 1.38-.69 2.188-.899.807-.208 1.64-.351 2.5-.43.677-.026 1.354.014 2.03.118.574.104 1.173.3 1.798.586.625.26 1.158.664 1.601 1.21-.026-1.38-.078-2.474-.156-3.28a37.85 37.85 0 00-.156-1.915c-.105-.52-.196-.885-.274-1.094-.13-.182-.273-.39-.429-.625a2.354 2.354 0 00-.508-.625 2.393 2.393 0 00-.782-.507c-.312-.13-.677-.183-1.093-.157-.443.026-.795.144-1.055.352a2.44 2.44 0 00-.625.742c-.13.26-.208.547-.234.86a2.75 2.75 0 00.039.82c.052.156.13.325.234.508.104.156.248.325.43.507.182.183.43.339.742.47-.599.077-1.133.142-1.602.194-.468.027-.872.066-1.21.118-.391.052-.73.09-1.016.117a9.813 9.813 0 00-1.016.156l-1.25.195a43.6 43.6 0 00-1.718.313c.156-.182.299-.352.43-.508.13-.182.247-.338.35-.469.105-.156.21-.3.313-.43zm5.859 4.648a3.994 3.994 0 00-1.407.352 3.595 3.595 0 00-1.25.82 4.856 4.856 0 00-.937 1.21 3.124 3.124 0 00-.352 1.485c0 .547.13 1.029.39 1.446.287.39.652.716 1.095.976.468.26.963.417 1.484.469.547.052 1.08 0 1.602-.156a4.453 4.453 0 001.406-.86c.443-.416.82-.86 1.133-1.328.312-.495.534-.976.664-1.445.13-.495.143-.899.039-1.211-.209-.677-.677-1.146-1.406-1.406-.73-.287-1.55-.404-2.461-.352zm10.703-8.789c.521.078.989.143 1.406.195.391.026.742.053 1.055.079.338.025.664.039.976.039.287 0 .651-.014 1.094-.04.365-.025.833-.052 1.406-.078a224.61 224.61 0 002.11-.195c-.052.104-.157.43-.313.977-.156.52-.312 1.171-.469 1.953a39.37 39.37 0 00-.429 2.539 23.873 23.873 0 00-.157 2.734c.026.886.144 1.732.352 2.54.208.78.547 1.419 1.016 1.913.989 1.016 1.862 1.628 2.617 1.836.781.209 1.458.183 2.031-.078a3.407 3.407 0 001.406-1.172c.365-.52.625-1.002.782-1.445.39-1.198.625-2.461.703-3.79.052-1.145-.039-2.421-.274-3.827-.234-1.406-.794-2.839-1.679-4.297.677.052 1.263.091 1.757.117.495.026.925.052 1.289.078.417.026.782.052 1.094.078.287.026.625.026 1.016 0 .338 0 .742-.013 1.211-.039a92.476 92.476 0 011.64-.156c.105 2.552.196 4.83.274 6.836.078 1.98.13 3.737.156 5.273.052 1.51.078 2.826.078 3.946v2.773c-.026 1.797-.104 2.982-.234 3.555-.209.807-.586 1.614-1.133 2.422a8.636 8.636 0 01-1.992 2.148 8.548 8.548 0 01-2.813 1.484c-1.041.365-2.187.495-3.437.391-1.224-.104-2.201-.273-2.93-.508-.703-.208-1.263-.455-1.68-.742-.39-.286-.677-.586-.859-.898a4.434 4.434 0 01-.352-.977 43.654 43.654 0 00-.234-.898 1.505 1.505 0 00-.469-.742 27.049 27.049 0 00-.898-.704 14.638 14.638 0 00-.938-.625 5.516 5.516 0 00-.937-.507l8.32-.47a3.919 3.919 0 00-.508.86 3 3 0 00-.195.664c-.026.235-.013.43.039.586.104.313.287.651.547 1.016.286.39.651.69 1.094.898.442.235.963.313 1.562.235.625-.078 1.328-.404 2.11-.977.651-.495 1.198-1.289 1.64-2.383.365-.937.651-2.252.86-3.945.208-1.693.169-3.92-.118-6.68-.468 1.615-1.106 2.852-1.914 3.711-.807.86-1.614 1.485-2.421 1.875a6.882 6.882 0 01-2.93.742c-1.354-.052-2.513-.221-3.477-.507-.963-.313-1.758-.73-2.383-1.25a5.923 5.923 0 01-1.484-1.836 9.763 9.763 0 01-.742-2.422 15.282 15.282 0 01-.234-2.657v-2.539c.026-.78.039-1.484.039-2.109 0-.651-.066-1.172-.196-1.562a6.356 6.356 0 00-.625-1.172 7.102 7.102 0 00-.859-1.094 8.72 8.72 0 00-1.367-1.172zm37.109-4.648l1.953.195c.547.052.99.091 1.328.117.391.026.703.04.938.04.234.025.547.025.937 0 .339-.027.782-.053 1.328-.079.547-.052 1.237-.13 2.071-.234-.183.26-.326.494-.43.703-.104.182-.195.351-.273.508l-.235.468-.156.47c-.052.13-.104.286-.156.468-.026.182-.052.377-.078.586h6.015l-.547 3.164-5.507-.313a121.73 121.73 0 00-.274 3.086c-.052.73-.104 1.263-.156 1.602l-.078.703c-.078.99-.156 2.07-.235 3.242a34.135 34.135 0 00-.078 3.203c.026.99.117 1.823.274 2.5.156.651.429.977.82.977.391 0 .755-.104 1.094-.313.338-.208.625-.455.859-.742.261-.286.456-.573.586-.86.13-.312.195-.546.195-.702 0-.157-.039-.339-.117-.547-.13-.39-.364-.886-.703-1.485.755.183 1.419.365 1.992.547.287.104.547.209.782.313.26.104.559.221.898.351.286.13.651.287 1.094.47.442.181.963.403 1.562.663-.573.104-.989.274-1.25.508a1.129 1.129 0 00-.351.352c-.183.286-.391.677-.625 1.171-.235.47-.586.938-1.055 1.407-.469.468-1.107.885-1.914 1.25-.781.364-1.836.573-3.164.625-1.38.052-2.435-.183-3.164-.703-.703-.521-1.224-1.12-1.563-1.797a6.285 6.285 0 01-.547-2.07 49.895 49.895 0 00-.117-1.368c-.026-.234-.026-.82 0-1.758.026-.937.065-1.966.117-3.086.052-1.145.105-2.24.157-3.28a53.82 53.82 0 00.078-2.345c0-.26.013-.533.039-.82v-.742c.026-.287.039-.56.039-.82l-5.664-.04-.235-2.226 5.704.156a5.705 5.705 0 00-.196-.781 5.412 5.412 0 00-.156-.625 3.92 3.92 0 00-.234-.469 36.16 36.16 0 00-.352-.43l-.508-.507a20.978 20.978 0 00-.742-.703zm13.906-5c.599.104 1.146.182 1.641.234.495.026.911.052 1.25.078.391.026.729.04 1.016.04a42.3 42.3 0 001.367-.118c.442-.052.976-.117 1.601-.195a63.885 63.885 0 002.227-.313 6.382 6.382 0 00-.977.625c-.26.182-.468.378-.625.586a4.049 4.049 0 00-.429.664c-.131.339-.274 1.042-.43 2.11-.156.911-.352 2.265-.586 4.062-.208 1.797-.482 4.232-.82 7.305.937-.938 1.823-1.64 2.656-2.11.859-.494 1.615-.846 2.266-1.054.755-.235 1.458-.352 2.109-.352.807.078 1.628.339 2.461.781.859.417 1.654.912 2.383 1.485a12.036 12.036 0 011.953 1.836c.573.65.976 1.224 1.211 1.718.156.339.234.782.234 1.329 0 .52-.052 1.093-.156 1.718a17.987 17.987 0 01-.43 1.914 52.551 52.551 0 01-.547 1.836c-.156.573-.299 1.081-.429 1.524-.131.416-.209.716-.235.898a2.76 2.76 0 00.078 1.133c.079.313.235.651.469 1.016.235.338.586.625 1.055.859a14.887 14.887 0 00-1.172-.117 18.65 18.65 0 00-1.133-.117 20.066 20.066 0 00-1.25-.04h-1.406c-.443 0-.951.014-1.524.04-.572 0-1.197.013-1.875.039.365-.13.678-.3.938-.508.26-.235.482-.456.664-.664.208-.235.391-.482.547-.742.104-.209.234-.6.391-1.172a23.728 23.728 0 00.703-4.492 15.7 15.7 0 00.039-2.461c-.026-.808-.144-1.524-.352-2.149-.182-.625-.469-1.08-.859-1.367-1.172-.885-2.24-1.315-3.203-1.29-.938 0-1.836.378-2.696 1.134-.312.286-.612.573-.898.86-.261.26-.547.572-.859.937-.313.338-.599.69-.86 1.054 0 .39.013.82.039 1.29l.078 1.367c.026.494.065.99.118 1.484.052.755.13 1.497.234 2.227.078.625.182 1.315.312 2.07.131.729.3 1.393.508 1.992a4.707 4.707 0 00-1.054-.04h-1.055c-.391.027-.768.04-1.133.04-.339.026-.69.065-1.055.117-.312.052-.651.104-1.015.156a6.872 6.872 0 00-1.055.157c.313-.6.573-1.185.781-1.758.209-.6.378-1.12.508-1.563.156-.52.287-1.028.391-1.523.078-.39.13-1.133.156-2.227.052-1.12.091-2.396.117-3.828.026-1.458.039-2.994.039-4.61 0-1.614-.013-3.15-.039-4.608a72.89 72.89 0 00-.156-3.829c-.052-1.093-.117-1.849-.195-2.265a8.012 8.012 0 00-.43-1.25 4.894 4.894 0 00-.625-1.055 3.229 3.229 0 00-.977-.898zm32.618 23.32c.729 0 1.406-.078 2.031-.234a5.296 5.296 0 001.484-.625c.495-.313.82-.769.977-1.368.521.104.963.196 1.328.274.364.052.677.104.937.156.287.078.534.13.743.156.208.052.455.104.742.157.26.052.573.117.937.195.391.052.847.13 1.367.234a2.792 2.792 0 00-1.211.117c-.39.13-.768.274-1.132.43a6.447 6.447 0 00-1.172.664 5.67 5.67 0 00-.821.703c-.286.313-.703.612-1.25.899-.546.286-1.276.534-2.187.742-.885.182-2.031.247-3.438.195-1.692-.052-3.112-.351-4.257-.898-1.146-.573-2.071-1.263-2.774-2.07a7.972 7.972 0 01-1.523-2.696c-.313-.963-.482-1.862-.508-2.695-.026-.834.221-1.706.742-2.617.521-.912 1.25-1.745 2.188-2.5.963-.755 2.122-1.367 3.476-1.836 1.354-.495 2.839-.742 4.453-.742.938 0 1.797.117 2.578.351a9.114 9.114 0 012.188.86 8.178 8.178 0 011.758 1.25c.495.442.911.898 1.25 1.367a9.14 9.14 0 01.859 1.562c.208.469.378 1.003.508 1.602.13.599.169 1.21.117 1.836-1.979.052-3.581.09-4.805.117-1.197.026-2.135.039-2.812.039H191.707c-.469 0-1.081.013-1.836.039-.755.026-1.68.065-2.773.117.13 1.042.455 1.85.976 2.422.547.547 1.12.964 1.719 1.25a6.218 6.218 0 002.227.547zm-3.516-7.031c.833.052 1.523.09 2.07.117a56.32 56.32 0 011.406.078c.391.026.704.04.938.04h.977c.651 0 1.862-.04 3.632-.118-.078-1.146-.325-2.018-.742-2.617-.39-.6-.807-1.042-1.25-1.328a3.93 3.93 0 00-1.719-.547c-1.692.026-2.955.377-3.789 1.054-.807.678-1.315 1.784-1.523 3.32zm46.719-3.242c-.078-.521-.144-.951-.196-1.29a8.96 8.96 0 00-.156-.859l-.117-.586a5.743 5.743 0 00-.195-.43 2.369 2.369 0 00-.274-.468 10.88 10.88 0 00-.39-.625c.338.104.677.169 1.015.195.365.026.703.052 1.016.078.338.026.69.026 1.054 0 .365 0 .782-.013 1.25-.039.417-.026.912-.039 1.485-.039a80.784 80.784 0 002.031-.117 2.71 2.71 0 00-1.133.547 4.206 4.206 0 00-.742.78c-.234.313-.43.652-.586 1.017-.13.338-.208.99-.234 1.953a71.874 71.874 0 000 3.36c.026 1.275.052 2.655.078 4.14.052 1.484.078 2.903.078 4.258a88.086 88.086 0 010 3.71c-.026 1.094-.091 1.901-.195 2.422-.365 1.64-1.042 2.97-2.032 3.985-.989 1.041-2.291 1.601-3.906 1.68-1.953.078-3.502-.105-4.648-.547-1.12-.443-1.992-.99-2.617-1.641-.625-.625-1.094-1.263-1.407-1.914-.312-.651-.638-1.146-.976-1.485-.313-.286-.625-.56-.938-.82a27.011 27.011 0 00-.898-.625 2.112 2.112 0 00-.86-.39c.756.026 1.433.039 2.032.039h1.523c.469 0 .886-.014 1.25-.04h4.805c-.521.157-.912.326-1.172.508-.26.209-.443.417-.547.625a1.721 1.721 0 00-.156.703c.104.625.443 1.081 1.015 1.368.573.286 1.355.455 2.344.507.964.052 1.628.026 1.992-.078.365-.078.651-.234.86-.468.416-.625.768-1.433 1.054-2.422.209-.834.352-1.914.43-3.242.104-1.355-.013-3.008-.351-4.961-.834 1.145-1.797 2.005-2.891 2.578s-2.135.99-3.125 1.25c-1.172.286-2.357.43-3.555.43-3.151-.13-5.508-.86-7.07-2.188-1.563-1.328-2.279-3.112-2.148-5.352.078-1.12.416-2.24 1.015-3.36a11.606 11.606 0 012.422-3.007 12.068 12.068 0 013.477-2.11 9.403 9.403 0 014.062-.663c1.068.104 2.07.3 3.008.586.807.26 1.601.625 2.383 1.093a4.586 4.586 0 011.836 1.954zm-12.422 3.906c-.156 1.015-.091 1.966.195 2.851.313.886.742 1.654 1.289 2.305a6.588 6.588 0 001.836 1.484c.677.339 1.315.495 1.914.47 1.25-.027 2.331-.587 3.242-1.68.912-1.12 1.459-2.787 1.641-5 .078-1.094-.065-2.032-.43-2.813-.338-.807-.768-1.458-1.289-1.953-.521-.495-1.067-.846-1.64-1.055-.573-.208-1.029-.3-1.368-.273-.468.052-.989.195-1.562.43-.547.208-1.081.533-1.602.976-.52.417-.989.976-1.406 1.68-.391.703-.664 1.562-.82 2.578zm22.226-3.164c.131-.157.209-.443.235-.86.052-.442.156-.937.312-1.484.183-.547.482-1.12.899-1.719.416-.599 1.093-1.159 2.031-1.68.911-.52 1.797-.833 2.656-.937a7.032 7.032 0 012.461.117 7.985 7.985 0 012.188.86c.703.39 1.341.82 1.914 1.289.39.312.703.768.937 1.367.235.573.417 1.224.547 1.953.13.73.221 1.497.273 2.305.079.78.131 1.55.157 2.304.026.73.039 1.407.039 2.032.026.599.078 1.093.156 1.484.104.573.286 1.068.547 1.484.26.39.547.73.859 1.016.313.26.625.469.938.625.312.156.586.273.82.352.156.078.3.13.43.156.26.104.442.104.547 0-.157.364-.3.677-.43.937s-.234.482-.313.664a7.783 7.783 0 01-.273.508 2.41 2.41 0 01-.273.43 3.63 3.63 0 01-.313.43c-.13.156-.26.325-.391.507a6.722 6.722 0 01-.976-.468 41.182 41.182 0 01-.781-.508 10.18 10.18 0 01-.782-.547 5.049 5.049 0 01-.664-.625c-.182-.209-.377-.43-.586-.664a3.888 3.888 0 01-.468-.781c-.157.338-.534.82-1.133 1.445-.573.625-1.328 1.198-2.266 1.719-.937.494-2.031.846-3.281 1.054-1.224.209-2.578.065-4.063-.43a7.048 7.048 0 01-1.835-.898 6.698 6.698 0 01-1.485-1.484 6.035 6.035 0 01-.859-1.953c-.156-.756-.143-1.589.039-2.5.182-.912.508-1.68.976-2.305a5.849 5.849 0 011.68-1.523c.651-.391 1.38-.69 2.188-.899.807-.208 1.64-.351 2.5-.43.677-.026 1.354.014 2.031.118.573.104 1.172.3 1.797.586.625.26 1.159.664 1.601 1.21-.026-1.38-.078-2.474-.156-3.28a37.85 37.85 0 00-.156-1.915c-.104-.52-.196-.885-.274-1.094-.13-.182-.273-.39-.429-.625a2.354 2.354 0 00-.508-.625 2.388 2.388 0 00-.781-.507c-.313-.13-.677-.183-1.094-.157-.443.026-.794.144-1.055.352-.26.208-.469.456-.625.742a2.34 2.34 0 00-.234.86c-.026.312-.013.585.039.82.052.156.13.325.234.508.104.156.248.325.43.507.182.183.43.339.742.47a86.85 86.85 0 01-1.601.194c-.469.027-.873.066-1.211.118-.391.052-.73.09-1.016.117a9.851 9.851 0 00-1.016.156l-1.25.195c-.494.079-1.067.183-1.718.313.156-.182.299-.352.429-.508.13-.182.248-.338.352-.469.104-.156.208-.3.312-.43zm5.86 4.648a3.997 3.997 0 00-1.407.352 3.606 3.606 0 00-1.25.82 4.854 4.854 0 00-.937 1.21 3.127 3.127 0 00-.352 1.485c0 .547.131 1.029.391 1.446.286.39.651.716 1.094.976.469.26.963.417 1.484.469.547.052 1.081 0 1.602-.156a4.453 4.453 0 001.406-.86 7.68 7.68 0 001.133-1.328c.312-.495.534-.976.664-1.445.13-.495.143-.899.039-1.211-.208-.677-.677-1.146-1.406-1.406-.73-.287-1.55-.404-2.461-.352zm12.5-7.344a41.723 41.723 0 001.523-.156c.443-.052.807-.104 1.094-.156.338-.052.625-.104.859-.156.235-.026.495-.079.782-.157.26-.052.546-.117.859-.195.338-.104.703-.221 1.094-.351l-.235 4.96c.573-.911 1.237-1.601 1.992-2.07.756-.495 1.472-.86 2.149-1.094a8.928 8.928 0 012.422-.507 8.048 8.048 0 012.304.39 6.795 6.795 0 011.797.977c.625.443 1.107 1.094 1.446 1.953.885-.912 1.757-1.615 2.617-2.11.885-.52 1.667-.911 2.344-1.171.807-.287 1.562-.456 2.265-.508.938-.026 1.797.13 2.578.469a7.749 7.749 0 012.11 1.289 6.896 6.896 0 011.445 1.601c.365.547.573 1.029.625 1.445.078.573.039 1.316-.117 2.227a63.564 63.564 0 01-.547 2.734c-.208.912-.404 1.758-.586 2.54-.156.755-.221 1.289-.195 1.601.078.26.26.573.547.938.26.312.638.703 1.132 1.171.521.443 1.263.964 2.227 1.563a254.53 254.53 0 01-2.227-.078 21.7 21.7 0 01-1.601-.117 42.421 42.421 0 00-1.367-.118 9.92 9.92 0 01-1.133-.078 96.163 96.163 0 01-1.445-.117 92.732 92.732 0 00-1.993-.156c.287-.078.521-.221.703-.43.183-.234.339-.456.469-.664.13-.26.235-.547.313-.86.052-.26.104-.676.156-1.25a36.04 36.04 0 00.117-1.952c.052-.73.078-1.498.078-2.305.026-.807.026-1.576 0-2.305a21.428 21.428 0 00-.156-1.992c-.078-.599-.182-1.055-.312-1.367a1.121 1.121 0 00-.547-.547 2.025 2.025 0 00-.899-.273 2.668 2.668 0 00-1.015.039 2.457 2.457 0 00-.899.312c-.234.182-.547.43-.937.742-.339.287-.782.677-1.328 1.172l-2.071 1.875c-.078 1.64-.143 2.969-.195 3.985-.026.99-.052 1.744-.078 2.265a37.091 37.091 0 00-.039 1.29c-.026.208-.013.403.039.585.052.39.208.755.469 1.094a5.95 5.95 0 00-1.016-.156 69.943 69.943 0 01-.938-.078 12.269 12.269 0 00-1.953 0c-.286.026-.638.065-1.054.117a32.58 32.58 0 00-1.368.117 1.75 1.75 0 00.508-.469 3.87 3.87 0 00.313-.508c.104-.182.182-.351.234-.507.026-.157.078-.534.156-1.133.078-.625.131-1.354.157-2.188.026-.833.026-1.705 0-2.617a14.602 14.602 0 00-.274-2.539c-.156-.781-.403-1.42-.742-1.914-.313-.495-.729-.716-1.25-.664a6.63 6.63 0 00-1.914.469c-.547.208-1.133.52-1.758.937-.625.417-1.211.977-1.758 1.68a160.848 160.848 0 00-.195 4.648c0 1.146.013 2.018.039 2.617.026.704.052 1.185.078 1.446.026.182.091.364.195.547l.274.547c.13.208.273.403.43.585l-6.211-.312c.208-.104.39-.234.547-.39.156-.183.286-.365.39-.548l.313-.625c.078-.182.143-.611.195-1.289.078-.677.143-1.471.195-2.382.052-.938.091-1.915.117-2.93.053-1.042.079-2.005.079-2.89.026-.912.039-1.68.039-2.305 0-.652-.013-1.042-.039-1.172a2.805 2.805 0 00-.43-.82 4.886 4.886 0 00-.742-.665c-.313-.26-.729-.455-1.25-.586zm44.883 12.227c.729 0 1.406-.078 2.031-.234a5.296 5.296 0 001.484-.625c.495-.313.82-.769.977-1.368.521.104.963.196 1.328.274.364.052.677.104.937.156.287.078.534.13.743.156.208.052.455.104.742.157.26.052.573.117.937.195.391.052.847.13 1.367.234a2.792 2.792 0 00-1.211.117c-.39.13-.768.274-1.132.43a6.447 6.447 0 00-1.172.664 5.67 5.67 0 00-.821.703c-.286.313-.703.612-1.25.899-.546.286-1.276.534-2.187.742-.885.182-2.031.247-3.438.195-1.692-.052-3.112-.351-4.257-.898-1.146-.573-2.071-1.263-2.774-2.07a7.972 7.972 0 01-1.523-2.696c-.313-.963-.482-1.862-.508-2.695-.026-.834.221-1.706.742-2.617.521-.912 1.25-1.745 2.188-2.5.963-.755 2.122-1.367 3.476-1.836 1.354-.495 2.839-.742 4.453-.742.938 0 1.797.117 2.578.351a9.114 9.114 0 012.188.86 8.178 8.178 0 011.758 1.25c.495.442.911.898 1.25 1.367a9.14 9.14 0 01.859 1.562c.208.469.378 1.003.508 1.602.13.599.169 1.21.117 1.836-1.979.052-3.581.09-4.805.117-1.197.026-2.135.039-2.812.039H307.957c-.469 0-1.081.013-1.836.039-.755.026-1.68.065-2.773.117.13 1.042.455 1.85.976 2.422.547.547 1.12.964 1.719 1.25a6.218 6.218 0 002.227.547zm-3.516-7.031c.833.052 1.523.09 2.07.117a56.32 56.32 0 011.406.078c.391.026.704.04.938.04h.977c.651 0 1.862-.04 3.632-.118-.078-1.146-.325-2.018-.742-2.617-.39-.6-.807-1.042-1.25-1.328a3.93 3.93 0 00-1.719-.547c-1.692.026-2.955.377-3.789 1.054-.807.678-1.315 1.784-1.523 3.32zm38.437 7.03c.73 0 1.407-.077 2.032-.233a5.309 5.309 0 001.484-.625c.495-.313.82-.769.977-1.368.52.104.963.196 1.328.274.364.052.677.104.937.156.287.078.534.13.742.156.209.052.456.104.743.157.26.052.573.117.937.195.391.052.846.13 1.367.234a2.792 2.792 0 00-1.211.117c-.39.13-.768.274-1.132.43a6.447 6.447 0 00-1.172.664 5.67 5.67 0 00-.821.703c-.286.313-.703.612-1.25.899-.547.286-1.276.534-2.187.742-.886.182-2.031.247-3.438.195-1.692-.052-3.112-.351-4.257-.898-1.146-.573-2.071-1.263-2.774-2.07a7.972 7.972 0 01-1.523-2.696c-.313-.963-.482-1.862-.508-2.695-.026-.834.221-1.706.742-2.617.521-.912 1.25-1.745 2.188-2.5.963-.755 2.122-1.367 3.476-1.836 1.354-.495 2.839-.742 4.453-.742.938 0 1.797.117 2.578.351a9.114 9.114 0 012.188.86 8.178 8.178 0 011.758 1.25 8.68 8.68 0 011.25 1.367 9.14 9.14 0 01.859 1.562c.208.469.378 1.003.508 1.602.13.599.169 1.21.117 1.836-1.979.052-3.581.09-4.805.117-1.198.026-2.135.039-2.812.039H342.879c-.469 0-1.081.013-1.836.039-.755.026-1.68.065-2.773.117.13 1.042.455 1.85.976 2.422.547.547 1.12.964 1.719 1.25a6.218 6.218 0 002.226.547zm-3.515-7.03c.833.052 1.523.09 2.07.117a56.32 56.32 0 011.406.078c.391.026.703.04.938.04h.976c.651 0 1.862-.04 3.633-.118-.078-1.146-.325-2.018-.742-2.617-.391-.6-.807-1.042-1.25-1.328a3.93 3.93 0 00-1.719-.547c-1.692.026-2.955.377-3.789 1.054-.807.678-1.315 1.784-1.523 3.32zm16.679 9.023c.183-.86.313-1.614.391-2.265.104-.678.182-1.237.234-1.68.053-.521.079-.964.079-1.328-.026-.443-.052-.964-.079-1.563 0-.625-.026-1.237-.078-1.836a24.229 24.229 0 00-.117-1.64c-.052-.495-.117-.847-.195-1.055a4.058 4.058 0 00-.43-.664c-.364-.443-.898-.873-1.601-1.29.599-.13 1.106-.234 1.523-.312.443-.104.807-.195 1.094-.273l.82-.274c.208-.078.456-.156.742-.234.235-.052.521-.117.86-.195l1.172-.274-.118 3.555c.834-.99 1.68-1.732 2.539-2.227.86-.494 1.667-.846 2.422-1.054.86-.26 1.706-.39 2.539-.39 1.042.051 2.006.22 2.891.507.911.286 1.693.625 2.344 1.016.677.364 1.224.755 1.64 1.171.417.417.664.782.743 1.094.312 1.016.39 1.953.234 2.813a20.066 20.066 0 01-.625 2.46 39.045 39.045 0 00-.625 2.344c-.156.782-.091 1.628.195 2.54l.313.703c.104.208.234.416.39.625.157.208.339.377.547.507a9.458 9.458 0 00-.859-.039 38.841 38.841 0 01-.781-.078 40.523 40.523 0 01-.782-.078c-.26-.026-.612-.039-1.054-.039-.756 0-1.927.04-3.516.117.234-.547.417-1.002.547-1.367.156-.39.286-.703.391-.938.104-.286.182-.507.234-.664.312-.755.495-1.614.547-2.578a10.15 10.15 0 00-.196-2.93 9.066 9.066 0 00-.39-1.21 6.387 6.387 0 00-.742-1.367 4.379 4.379 0 00-1.055-1.133 2.545 2.545 0 00-1.367-.547c-.521-.052-1.107.078-1.758.39-.625.313-1.302.886-2.031 1.72-.547.702-.977 1.562-1.289 2.577-.287.86-.482 1.94-.586 3.242-.104 1.276.052 2.774.468 4.493a7.2 7.2 0 00-1.015-.078 19.437 19.437 0 01-.781-.079 28.587 28.587 0 01-.704-.078c-.234 0-.494-.013-.781-.039h-.976a85.185 85.185 0 00-1.368-.078zm21.758-20.312l1.953.195c.547.052.99.091 1.329.117.39.026.703.04.937.04.234.025.547.025.938 0 .338-.027.781-.053 1.328-.079.547-.052 1.237-.13 2.07-.234-.182.26-.326.494-.43.703-.104.182-.195.351-.273.508l-.235.468-.156.47c-.052.13-.104.286-.156.468-.026.182-.052.377-.078.586h6.015l-.546 3.164-5.508-.313c-.13 1.329-.222 2.357-.274 3.086-.052.73-.104 1.263-.156 1.602l-.078.703c-.078.99-.156 2.07-.234 3.242-.079 1.146-.105 2.214-.079 3.203.027.99.118 1.823.274 2.5.156.651.43.977.82.977.391 0 .755-.104 1.094-.313.339-.208.625-.455.859-.742.261-.286.456-.573.586-.86.13-.312.196-.546.196-.702 0-.157-.039-.339-.118-.547-.13-.39-.364-.886-.703-1.485.755.183 1.42.365 1.992.547.287.104.547.209.782.313.26.104.56.221.898.351.287.13.651.287 1.094.47.443.181.963.403 1.562.663-.573.104-.989.274-1.25.508a1.129 1.129 0 00-.351.352c-.182.286-.391.677-.625 1.171-.235.47-.586.938-1.055 1.407-.469.468-1.107.885-1.914 1.25-.781.364-1.836.573-3.164.625-1.38.052-2.435-.183-3.164-.703-.703-.521-1.224-1.12-1.563-1.797a6.282 6.282 0 01-.546-2.07 48.581 48.581 0 00-.118-1.368c-.026-.234-.026-.82 0-1.758.026-.937.066-1.966.118-3.086.052-1.145.104-2.24.156-3.28a53.82 53.82 0 00.078-2.345c0-.26.013-.533.039-.82v-.742c.026-.287.039-.56.039-.82l-5.664-.04-.234-2.226 5.703.156a5.563 5.563 0 00-.196-.781 5.412 5.412 0 00-.156-.625 3.92 3.92 0 00-.234-.469c-.104-.13-.222-.273-.352-.43l-.508-.507a20.978 20.978 0 00-.742-.703zm24.258 18.32c.729 0 1.406-.078 2.031-.234a5.302 5.302 0 001.485-.625c.495-.313.82-.769.976-1.368.521.104.964.196 1.328.274.365.052.677.104.938.156.286.078.534.13.742.156.208.052.456.104.742.157.261.052.573.117.938.195.39.052.846.13 1.367.234a2.79 2.79 0 00-1.211.117c-.391.13-.768.274-1.133.43a6.515 6.515 0 00-1.172.664c-.234.156-.507.39-.82.703-.286.313-.703.612-1.25.899-.547.286-1.276.534-2.187.742-.886.182-2.032.247-3.438.195-1.693-.052-3.112-.351-4.258-.898-1.146-.573-2.07-1.263-2.773-2.07a7.991 7.991 0 01-1.524-2.696c-.312-.963-.481-1.862-.507-2.695-.027-.834.221-1.706.742-2.617.521-.912 1.25-1.745 2.187-2.5.964-.755 2.123-1.367 3.477-1.836 1.354-.495 2.838-.742 4.453-.742.937 0 1.797.117 2.578.351a9.147 9.147 0 012.188.86 8.146 8.146 0 011.757 1.25c.495.442.912.898 1.25 1.367.339.495.625 1.015.86 1.562.208.469.377 1.003.508 1.602.13.599.169 1.21.117 1.836-1.979.052-3.581.09-4.805.117-1.198.026-2.135.039-2.812.039H402.059c-.469 0-1.081.013-1.836.039-.756.026-1.68.065-2.774.117.13 1.042.456 1.85.977 2.422.547.547 1.12.964 1.719 1.25a6.218 6.218 0 002.226.547zm-3.516-7.031c.834.052 1.524.09 2.071.117.573.026 1.041.052 1.406.078.391.026.703.04.938.04h.976c.651 0 1.862-.04 3.633-.118-.078-1.146-.326-2.018-.742-2.617-.391-.6-.808-1.042-1.25-1.328a3.93 3.93 0 00-1.719-.547c-1.693.026-2.956.377-3.789 1.054-.807.678-1.315 1.784-1.524 3.32zm15.079-5.39c.494.025.937.038 1.328.038.416-.026.768-.052 1.054-.078.339-.026.638-.052.899-.078.39-.052.794-.117 1.211-.195.364-.053.742-.118 1.133-.196.416-.104.82-.221 1.211-.351-.157.39-.287.729-.391 1.015a7.687 7.687 0 00-.234.742c-.079.235-.118.43-.118.586a4.801 4.801 0 00-.039.665c-.026.442-.026 1.158 0 2.148 1.354-1.172 2.487-2.083 3.399-2.734.937-.652 1.679-1.16 2.226-1.524.651-.416 1.159-.69 1.524-.82.963-.156 1.81.065 2.539.664.312.26.612.612.898 1.055.287.416.534.976.742 1.68.209.702.365 1.549.469 2.538.104.964.117 2.123.039 3.477-.547.052-1.041.104-1.484.156-.417.052-.768.091-1.055.117a6.187 6.187 0 01-.937.078l-1.055.118c-.365.052-.82.104-1.367.156-.521.026-1.159.078-1.914.156 1.093-.885 1.797-1.654 2.109-2.305.339-.677.482-1.236.43-1.68-.052-.494-.287-.924-.703-1.288a2.452 2.452 0 00-1.602-.313c-.495.052-1.068.274-1.719.664s-1.341 1.12-2.07 2.188c.052 1.666.104 3.047.156 4.14.078 1.094.144 1.98.196 2.657.078.78.143 1.393.195 1.836.078.39.234.807.469 1.25.182.364.442.768.781 1.21.338.443.781.886 1.328 1.329-1.146-.052-2.083-.052-2.812 0-.443.026-.834.052-1.172.078-.365.052-.756.104-1.172.156-.365.052-.794.104-1.289.156-.469.078-.99.157-1.563.235.209-.287.378-.625.508-1.016.13-.365.234-.716.313-1.055.104-.39.182-.794.234-1.21.026-.365.039-.912.039-1.641.026-.73.013-1.55-.039-2.461-.026-.938-.065-1.901-.117-2.89a75.855 75.855 0 00-.196-2.852 33.459 33.459 0 00-.273-2.305c-.078-.677-.169-1.146-.273-1.406a8.037 8.037 0 00-.469-.938 7.488 7.488 0 00-.586-.898c-.235-.339-.495-.69-.781-1.055zM9.988 60.04c.521.077.99.142 1.407.194.39.026.742.052 1.054.078.339.027.664.04.977.04.286 0 .65-.013 1.094-.04a56.55 56.55 0 011.406-.078c.599-.052 1.302-.117 2.11-.195-.053.104-.157.43-.313.977-.157.52-.313 1.172-.47 1.953a39.34 39.34 0 00-.429 2.539 24.078 24.078 0 00-.156 2.734c.026.886.143 1.732.352 2.54.208.78.546 1.419 1.015 1.913.99 1.016 1.862 1.628 2.617 1.836.782.209 1.459.182 2.032-.078a3.411 3.411 0 001.406-1.172c.364-.52.625-1.002.781-1.445.39-1.198.625-2.461.703-3.79.052-1.145-.039-2.421-.273-3.827-.235-1.406-.794-2.839-1.68-4.297.677.052 1.263.091 1.758.117.495.026.924.052 1.289.078.417.026.781.052 1.094.078.286.026.625.026 1.015 0 .339 0 .742-.013 1.211-.039a92.397 92.397 0 011.64-.156c.105 2.552.196 4.83.274 6.836.078 1.98.13 3.737.157 5.273.052 1.51.078 2.826.078 3.946v2.773c-.026 1.797-.104 2.982-.235 3.555-.208.807-.586 1.614-1.133 2.422a8.627 8.627 0 01-1.992 2.148 8.54 8.54 0 01-2.812 1.484c-1.042.365-2.188.495-3.438.391-1.224-.104-2.2-.273-2.93-.508-.703-.208-1.262-.455-1.679-.742-.39-.286-.677-.586-.86-.898a4.378 4.378 0 01-.351-.977 43.609 43.609 0 00-.234-.898 1.51 1.51 0 00-.47-.743 27.071 27.071 0 00-.898-.703 14.622 14.622 0 00-.937-.625 5.52 5.52 0 00-.938-.507l8.32-.47a3.866 3.866 0 00-.507.86c-.104.26-.17.482-.195.664-.026.235-.013.43.039.586.104.313.286.651.547 1.016.286.39.65.69 1.093.898.443.235.964.313 1.563.235.625-.079 1.328-.404 2.11-.977.65-.495 1.197-1.289 1.64-2.383.364-.937.65-2.252.86-3.945.208-1.693.169-3.92-.118-6.68-.469 1.615-1.107 2.852-1.914 3.711-.807.86-1.615 1.485-2.422 1.875a6.876 6.876 0 01-2.93.742c-1.354-.052-2.513-.221-3.476-.507-.964-.313-1.758-.73-2.383-1.25a5.917 5.917 0 01-1.484-1.836 9.746 9.746 0 01-.743-2.422 15.254 15.254 0 01-.234-2.656v-2.54c.026-.78.04-1.484.04-2.109 0-.651-.066-1.172-.196-1.562a6.398 6.398 0 00-.625-1.172 7.087 7.087 0 00-.86-1.094 8.717 8.717 0 00-1.367-1.172zm35.235 2.46c.677 0 1.38.13 2.109.39.73.235 1.432.547 2.11.938.676.365 1.288.768 1.835 1.211.573.417 1.042.82 1.407 1.211.65.703 1.093 1.654 1.328 2.852.26 1.171.312 2.382.156 3.632a10.226 10.226 0 01-1.094 3.477c-.573 1.094-1.367 1.901-2.383 2.422-.729.364-1.445.65-2.148.86-.703.208-1.38.364-2.031.468-.651.104-1.263.156-1.836.156a24.19 24.19 0 01-1.485-.039c-.78-.052-1.601-.325-2.46-.82a12.965 12.965 0 01-2.383-1.836 12.593 12.593 0 01-1.875-2.383c-.521-.885-.834-1.719-.938-2.5a14.367 14.367 0 01-.078-3.36 6.93 6.93 0 011.133-3.242c.677-.99 1.693-1.81 3.047-2.46 1.38-.651 3.242-.977 5.586-.977zm-1.29 15.156c.287.052.678-.013 1.172-.195.495-.208.977-.534 1.446-.977.495-.442.924-1.002 1.289-1.68.39-.702.625-1.549.703-2.538.078-.964.078-1.85 0-2.657-.052-.807-.17-1.51-.352-2.109-.182-.625-.39-1.133-.625-1.523-.234-.391-.481-.665-.742-.82-.442-.235-.976-.417-1.601-.548-.625-.156-1.16-.13-1.602.079-.208.104-.469.325-.781.664a7.88 7.88 0 00-.938 1.289 10.566 10.566 0 00-.859 1.718 10.534 10.534 0 00-.508 2.032c-.104.703-.13 1.458-.078 2.265.078.807.247 1.576.508 2.305.26.703.625 1.315 1.094 1.836.494.495 1.12.781 1.875.86zm12.305-15.625c.677.13 1.263.235 1.758.313.52.052.964.104 1.328.156.417.052.782.091 1.094.117.313.026.677.052 1.094.078.703.026 1.692.026 2.969 0-.756-.052-1.355.144-1.797.586-.417.417-.73.899-.938 1.446-.26.65-.404 1.406-.43 2.265a20.169 20.169 0 00.078 3.125c.13.912.352 1.693.665 2.344.338.625.78 1.094 1.328 1.406.547.287 1.25.365 2.11.235.859-.13 1.51-.43 1.952-.899a4.372 4.372 0 001.016-1.797c.208-.729.325-1.55.351-2.46.052-.912.092-1.863.118-2.852 0-.99-.013-1.693-.04-2.11 0-.442-.013-.729-.038-.859-.027-.13-.066-.182-.118-.156-.052 0-.117-.065-.195-.196a1.226 1.226 0 00-.234-.312 3.393 3.393 0 00-.313-.352 7.007 7.007 0 00-.43-.468c.677.026 1.276.052 1.797.078.547 0 1.003.013 1.368.039.416.026.78.052 1.093.078.287.026.664.065 1.133.117.39.052.899.104 1.524.156.625.052 1.367.13 2.226.235-.599.13-1.08.325-1.445.586-.365.26-.651.52-.86.78a2.749 2.749 0 00-.508.938c-.078.443-.078 1.12 0 2.032.053.807.183 1.914.391 3.32.209 1.406.534 3.255.977 5.547l-3.086 1.836-.625-5.195c-.755 1.275-1.563 2.265-2.422 2.968-.833.677-1.615 1.172-2.344 1.485-.86.364-1.693.572-2.5.625-1.068 0-1.992-.066-2.773-.196-.755-.156-1.407-.351-1.953-.586-.547-.234-.99-.494-1.328-.78a3.674 3.674 0 01-.704-.938c-.364-.651-.56-1.485-.586-2.5-.026-1.042.013-2.07.118-3.086.104-1.042.22-1.993.351-2.852.13-.86.17-1.445.117-1.758a6.325 6.325 0 00-.234-.78 10.884 10.884 0 00-.39-.782 4.998 4.998 0 00-.665-.977zm20.664-.742c.495.026.938.04 1.329.04a38.48 38.48 0 001.054-.079c.339-.026.638-.052.899-.078.39-.052.794-.117 1.21-.195.365-.052.743-.118 1.133-.196.417-.104.82-.221 1.211-.351-.156.39-.286.729-.39 1.015a7.674 7.674 0 00-.235.742c-.078.235-.117.43-.117.586a4.8 4.8 0 00-.039.664c-.026.443-.026 1.16 0 2.149 1.354-1.172 2.487-2.083 3.399-2.734.937-.651 1.68-1.16 2.226-1.524.651-.417 1.159-.69 1.524-.82.963-.156 1.81.065 2.538.664.313.26.612.612.899 1.055.286.416.534.976.742 1.68.209.702.365 1.549.469 2.538.104.964.117 2.123.039 3.477-.547.052-1.042.104-1.484.156-.417.052-.769.091-1.055.117a6.194 6.194 0 01-.938.078l-1.054.118c-.365.052-.82.104-1.368.156a37.09 37.09 0 00-1.913.156c1.093-.885 1.796-1.654 2.109-2.305.338-.677.482-1.236.43-1.68-.053-.494-.287-.924-.704-1.288a2.45 2.45 0 00-1.601-.313c-.495.052-1.068.274-1.719.664-.65.39-1.341 1.12-2.07 2.188.052 1.666.104 3.047.156 4.14.078 1.094.143 1.98.195 2.657.079.78.144 1.393.196 1.836.078.39.234.807.468 1.25.183.364.443.768.782 1.21.338.443.78.886 1.328 1.329-1.146-.053-2.084-.053-2.813 0-.442.026-.833.052-1.172.078-.364.052-.755.104-1.172.156-.364.052-.794.104-1.288.156-.47.078-.99.156-1.563.235.208-.287.378-.625.508-1.016.13-.365.234-.716.312-1.055.104-.39.183-.794.235-1.21.026-.365.039-.912.039-1.641.026-.73.013-1.55-.04-2.461-.025-.938-.064-1.901-.116-2.89a78.093 78.093 0 00-.196-2.852 33.43 33.43 0 00-.273-2.305c-.078-.677-.17-1.146-.274-1.406a7.866 7.866 0 00-.469-.938 7.462 7.462 0 00-.585-.898 21.7 21.7 0 00-.782-1.055zm31.563-8.984a41.74 41.74 0 002.89.43c.756.078 1.368.143 1.836.195.547.052.977.065 1.289.039h2.735c.651-.026 1.458-.04 2.422-.04a327.119 327.119 0 011.484 3.516c.469 1.068.859 1.98 1.172 2.735.365.911.703 1.731 1.016 2.46.364.912.755 1.915 1.171 3.008.417 1.094.795 2.123 1.133 3.086.365.964.664 1.758.899 2.383.234.625.351.912.351.86a127.043 127.043 0 00.117-2.695c.027-.782.053-1.628.079-2.54.052-.937.078-1.836.078-2.695.026-.886.039-1.693.039-2.422 0-.73-.026-1.276-.078-1.64-.078-.443-.235-.951-.469-1.524a21.066 21.066 0 00-.859-1.758c-.365-.703-.873-1.497-1.524-2.383 1.068.026 1.94.04 2.617.04h1.641c.469 0 .833-.014 1.094-.04.338 0 .755-.026 1.25-.078.442-.052.989-.091 1.64-.117l2.5-.195c-.573.52-1.028 1.015-1.367 1.484-.338.469-.612.886-.82 1.25a4.208 4.208 0 00-.469 1.172c-.104.469-.195 1.237-.273 2.305a359.182 359.182 0 01-.196 3.515c-.052 1.302-.104 2.657-.156 4.063a527.373 527.373 0 01-.156 3.867c0 .885-.026 1.836-.078 2.852-.052.859-.105 1.835-.157 2.93a144.205 144.205 0 01-.195 3.241l-3.476.079a513.244 513.244 0 01-2.579-4.61 453.086 453.086 0 00-1.679-3.203c-.495-.963-.912-1.77-1.25-2.422a25.757 25.757 0 00-1.133-2.148c-.391-.677-.886-1.51-1.484-2.5-.573-.99-1.263-2.123-2.071-3.399a108.657 108.657 0 00-.117 4.61c.026 1.25.065 2.291.117 3.125.078.963.169 1.77.274 2.421.13.626.312 1.329.547 2.11.208.677.455 1.471.742 2.383.312.911.69 1.94 1.133 3.086-1.537-.079-2.683-.118-3.438-.118h-1.172c-.364 0-.859.04-1.484.118-.521.052-1.237.13-2.149.234-.885.104-1.992.247-3.32.43.625-.756 1.12-1.446 1.484-2.07.391-.652.691-1.198.899-1.641.26-.521.443-.977.547-1.367.078-.417.13-1.133.156-2.149a78.992 78.992 0 000-3.516c0-1.328-.026-2.72-.078-4.18a171.888 171.888 0 00-.117-4.062 70.688 70.688 0 00-.196-3.203 36.7 36.7 0 00-.117-1.64 3.819 3.819 0 00-.469-1.094 10.768 10.768 0 00-.82-1.133c-.338-.443-.807-.925-1.406-1.445zm29.062 11.875c.131-.157.209-.443.235-.86.052-.442.156-.937.312-1.484.183-.547.482-1.12.899-1.719.416-.599 1.093-1.159 2.031-1.68.911-.52 1.797-.833 2.656-.937a7.03 7.03 0 012.461.117 7.983 7.983 0 012.188.86c.703.39 1.341.82 1.914 1.289.39.312.703.768.937 1.367.235.573.417 1.224.547 1.953.13.73.221 1.497.273 2.305.079.78.131 1.55.157 2.304.026.73.039 1.407.039 2.032.026.599.078 1.093.156 1.484.104.573.286 1.068.547 1.484.26.39.547.73.859 1.016.313.26.625.469.938.625.312.156.586.273.82.352.156.078.3.13.43.156.26.104.442.104.547 0-.157.364-.3.677-.43.937s-.234.482-.313.664a7.783 7.783 0 01-.273.508 2.41 2.41 0 01-.273.43 3.63 3.63 0 01-.313.43c-.13.156-.26.325-.391.507a6.722 6.722 0 01-.976-.468 41.182 41.182 0 01-.781-.508 10.18 10.18 0 01-.782-.547 5.049 5.049 0 01-.664-.625c-.182-.209-.377-.43-.586-.664a3.888 3.888 0 01-.468-.781c-.157.338-.534.82-1.133 1.445-.573.625-1.328 1.198-2.266 1.719-.937.494-2.031.846-3.281 1.054-1.224.209-2.578.065-4.063-.43a7.048 7.048 0 01-1.835-.898 6.698 6.698 0 01-1.485-1.484 6.035 6.035 0 01-.859-1.953c-.156-.756-.143-1.589.039-2.5.182-.912.508-1.68.976-2.305a5.849 5.849 0 011.68-1.523c.651-.391 1.38-.69 2.188-.899.807-.208 1.64-.351 2.5-.43.677-.026 1.354.014 2.031.118.573.104 1.172.3 1.797.586.625.26 1.159.664 1.601 1.21-.026-1.38-.078-2.474-.156-3.28a37.85 37.85 0 00-.156-1.915c-.104-.52-.196-.885-.274-1.094-.13-.182-.273-.39-.429-.625a2.354 2.354 0 00-.508-.625 2.388 2.388 0 00-.781-.507c-.313-.13-.677-.183-1.094-.157-.443.026-.794.144-1.055.352-.26.208-.469.456-.625.742a2.34 2.34 0 00-.234.86c-.026.312-.013.585.039.82.052.156.13.325.234.508.104.156.248.325.43.507.182.183.43.339.742.47a86.85 86.85 0 01-1.601.195c-.469.025-.873.065-1.211.117-.391.052-.73.09-1.016.117a9.851 9.851 0 00-1.016.156l-1.25.195c-.494.079-1.067.183-1.718.313.156-.182.299-.352.429-.508.13-.182.248-.338.352-.469.104-.156.208-.3.312-.43zm5.86 4.648a3.997 3.997 0 00-1.407.352 3.606 3.606 0 00-1.25.82 4.854 4.854 0 00-.937 1.21 3.127 3.127 0 00-.352 1.485c0 .547.131 1.029.391 1.446.286.39.651.716 1.094.976.469.26.963.417 1.484.469.547.052 1.081 0 1.602-.156a4.453 4.453 0 001.406-.86 7.68 7.68 0 001.133-1.328c.312-.495.534-.976.664-1.445.13-.495.143-.899.039-1.211-.208-.677-.677-1.146-1.406-1.406-.73-.287-1.55-.404-2.461-.352zm12.5-7.344a41.723 41.723 0 001.523-.156c.443-.052.807-.104 1.094-.156.338-.052.625-.104.859-.156.235-.026.495-.078.782-.157.26-.052.546-.117.859-.195.338-.104.703-.221 1.094-.352l-.235 4.961c.573-.911 1.237-1.601 1.992-2.07.756-.495 1.472-.86 2.149-1.094a8.928 8.928 0 012.422-.507 8.048 8.048 0 012.304.39 6.795 6.795 0 011.797.977c.625.442 1.107 1.093 1.446 1.953.885-.912 1.757-1.615 2.617-2.11.885-.52 1.667-.911 2.344-1.171.807-.287 1.562-.456 2.265-.508.938-.026 1.797.13 2.578.469a7.749 7.749 0 012.11 1.289 6.896 6.896 0 011.445 1.601c.365.547.573 1.029.625 1.445.078.573.039 1.316-.117 2.227a63.564 63.564 0 01-.547 2.734c-.208.912-.404 1.758-.586 2.54-.156.755-.221 1.289-.195 1.601.078.26.26.573.547.938.26.312.638.703 1.132 1.171.521.443 1.263.964 2.227 1.563a254.53 254.53 0 01-2.227-.078 21.7 21.7 0 01-1.601-.117 42.421 42.421 0 00-1.367-.118 9.92 9.92 0 01-1.133-.078 96.163 96.163 0 01-1.445-.117 92.732 92.732 0 00-1.993-.156c.287-.078.521-.221.703-.43.183-.234.339-.456.469-.664.13-.26.235-.547.313-.86.052-.26.104-.676.156-1.25a36.04 36.04 0 00.117-1.952c.052-.73.078-1.498.078-2.305.026-.807.026-1.576 0-2.305a21.428 21.428 0 00-.156-1.992c-.078-.599-.182-1.055-.312-1.367a1.121 1.121 0 00-.547-.547 2.025 2.025 0 00-.899-.273 2.668 2.668 0 00-1.015.039 2.457 2.457 0 00-.899.312c-.234.182-.547.43-.937.742-.339.287-.782.677-1.328 1.172l-2.071 1.875c-.078 1.64-.143 2.969-.195 3.985-.026.99-.052 1.744-.078 2.265a37.091 37.091 0 00-.039 1.29c-.026.208-.013.403.039.585.052.39.208.755.469 1.094a5.95 5.95 0 00-1.016-.156 69.943 69.943 0 01-.938-.078 12.269 12.269 0 00-1.953 0c-.286.026-.638.065-1.054.117a32.58 32.58 0 00-1.368.117 1.75 1.75 0 00.508-.469 3.87 3.87 0 00.313-.508c.104-.182.182-.351.234-.507.026-.157.078-.534.156-1.133.078-.625.131-1.354.157-2.188.026-.833.026-1.706 0-2.617a14.602 14.602 0 00-.274-2.539c-.156-.781-.403-1.42-.742-1.914-.313-.495-.729-.716-1.25-.664a6.63 6.63 0 00-1.914.469c-.547.208-1.133.52-1.758.937-.625.417-1.211.977-1.758 1.68a160.848 160.848 0 00-.195 4.648c0 1.146.013 2.018.039 2.617.026.704.052 1.185.078 1.446.026.182.091.364.195.547l.274.546c.13.209.273.404.43.586l-6.211-.312c.208-.104.39-.234.547-.39.156-.183.286-.365.39-.548l.313-.625c.078-.182.143-.611.195-1.289.078-.677.143-1.471.195-2.382.052-.938.091-1.915.117-2.93.053-1.042.079-2.005.079-2.89.026-.912.039-1.68.039-2.305 0-.651-.013-1.042-.039-1.172a2.805 2.805 0 00-.43-.82 4.886 4.886 0 00-.742-.665c-.313-.26-.729-.455-1.25-.586zm44.883 12.227c.729 0 1.406-.078 2.031-.234a5.296 5.296 0 001.484-.625c.495-.313.82-.769.977-1.368.521.105.963.196 1.328.274.364.052.677.104.937.156.287.078.534.13.743.156.208.052.455.105.742.157.26.052.573.117.937.195.391.052.847.13 1.367.234a2.792 2.792 0 00-1.211.117c-.39.13-.768.274-1.132.43a6.447 6.447 0 00-1.172.664 5.67 5.67 0 00-.821.703c-.286.313-.703.612-1.25.899-.546.286-1.276.534-2.187.742-.885.182-2.031.247-3.438.195-1.692-.052-3.112-.351-4.257-.898-1.146-.573-2.071-1.263-2.774-2.07a7.972 7.972 0 01-1.523-2.696c-.313-.963-.482-1.862-.508-2.695-.026-.834.221-1.706.742-2.617.521-.912 1.25-1.745 2.188-2.5.963-.755 2.122-1.367 3.476-1.836 1.354-.495 2.839-.742 4.453-.742.938 0 1.797.117 2.578.351a9.114 9.114 0 012.188.86 8.178 8.178 0 011.758 1.25c.495.442.911.898 1.25 1.367a9.14 9.14 0 01.859 1.562c.208.469.378 1.003.508 1.602.13.599.169 1.21.117 1.836-1.979.052-3.581.09-4.805.117-1.197.026-2.135.039-2.812.039H200.457c-.469 0-1.081.013-1.836.039-.755.026-1.68.065-2.773.117.13 1.042.455 1.85.976 2.422.547.547 1.12.964 1.719 1.25a6.218 6.218 0 002.227.547zm-3.516-7.031c.833.052 1.523.09 2.07.117a56.32 56.32 0 011.406.078c.391.026.704.04.938.04h.977c.651 0 1.862-.04 3.632-.118-.078-1.146-.325-2.018-.742-2.617-.39-.6-.807-1.042-1.25-1.328a3.93 3.93 0 00-1.719-.547c-1.692.026-2.955.377-3.789 1.054-.807.678-1.315 1.784-1.523 3.32zm31.211-2.5c.13-.157.208-.443.234-.86.052-.442.156-.937.313-1.484.182-.547.481-1.12.898-1.719.417-.599 1.094-1.159 2.031-1.68.912-.52 1.797-.833 2.657-.937a7.033 7.033 0 012.461.117c.781.183 1.51.469 2.187.86.703.39 1.341.82 1.914 1.289.391.312.703.768.938 1.367a9.71 9.71 0 01.547 1.953c.13.73.221 1.497.273 2.305.078.78.13 1.55.156 2.304.026.73.039 1.407.039 2.032.026.599.078 1.093.157 1.484.104.573.286 1.068.546 1.484.261.39.547.73.86 1.016.312.26.625.469.937.625.313.156.586.273.821.352.156.078.299.13.429.156.261.104.443.104.547 0-.156.364-.299.677-.43.937-.13.26-.234.482-.312.664a7.783 7.783 0 01-.273.508c-.079.156-.17.3-.274.43-.078.13-.182.273-.312.43a8.22 8.22 0 00-.391.507 6.734 6.734 0 01-.977-.468 48.773 48.773 0 01-.781-.508 10.153 10.153 0 01-.781-.547 4.987 4.987 0 01-.664-.625c-.182-.209-.378-.43-.586-.664a3.891 3.891 0 01-.469-.781c-.156.338-.534.82-1.133 1.445-.573.625-1.328 1.198-2.265 1.719-.938.494-2.032.846-3.282 1.054-1.223.209-2.578.065-4.062-.43a7.07 7.07 0 01-1.836-.898 6.673 6.673 0 01-1.484-1.484 6.037 6.037 0 01-.86-1.953c-.156-.756-.143-1.589.039-2.5.183-.912.508-1.68.977-2.305a5.849 5.849 0 011.68-1.523c.651-.391 1.38-.69 2.187-.899a15.677 15.677 0 012.5-.43c.677-.026 1.354.014 2.031.118.573.104 1.172.3 1.797.586.625.26 1.159.664 1.602 1.21-.026-1.38-.078-2.474-.156-3.28a38.826 38.826 0 00-.157-1.915c-.104-.52-.195-.885-.273-1.094-.13-.182-.274-.39-.43-.625a2.315 2.315 0 00-.508-.625 2.377 2.377 0 00-.781-.507c-.312-.13-.677-.183-1.094-.157-.442.026-.794.144-1.054.352a2.428 2.428 0 00-.625.742c-.131.26-.209.547-.235.86-.026.312-.013.585.039.82.052.156.131.325.235.508.104.156.247.325.429.507.183.183.43.339.743.47a85.83 85.83 0 01-1.602.195c-.469.025-.872.065-1.211.117-.391.052-.729.09-1.016.117a9.796 9.796 0 00-1.015.156l-1.25.195c-.495.079-1.068.183-1.719.313.156-.182.3-.352.43-.508.13-.182.247-.338.351-.469.105-.156.209-.3.313-.43zm5.859 4.648a3.992 3.992 0 00-1.406.352 3.596 3.596 0 00-1.25.82 4.857 4.857 0 00-.938 1.21 3.127 3.127 0 00-.351 1.485c0 .547.13 1.029.391 1.446a3.6 3.6 0 001.093.976c.469.26.964.417 1.485.469.547.052 1.08 0 1.601-.156a4.442 4.442 0 001.406-.86c.443-.416.821-.86 1.133-1.328.313-.495.534-.976.664-1.445.131-.495.144-.899.039-1.211-.208-.677-.677-1.146-1.406-1.406-.729-.287-1.549-.404-2.461-.352zm13.906 6.875c.183-.86.313-1.615.391-2.266.104-.677.182-1.236.234-1.68.053-.52.079-.963.079-1.327-.026-.443-.052-.964-.079-1.563 0-.625-.026-1.237-.078-1.836a24.229 24.229 0 00-.117-1.64c-.052-.495-.117-.847-.195-1.055a4.058 4.058 0 00-.43-.664c-.364-.443-.898-.872-1.601-1.29.599-.13 1.106-.234 1.523-.312.443-.104.807-.195 1.094-.273l.82-.274c.208-.078.456-.156.742-.234.235-.052.521-.117.86-.195l1.172-.274-.118 3.555c.834-.99 1.68-1.732 2.539-2.227.86-.494 1.667-.846 2.422-1.054.86-.26 1.706-.39 2.539-.39 1.042.051 2.006.22 2.891.507.911.286 1.693.625 2.344 1.016.677.364 1.224.755 1.64 1.171.417.417.664.782.743 1.094.312 1.016.39 1.953.234 2.813a20.066 20.066 0 01-.625 2.46 39.045 39.045 0 00-.625 2.344c-.156.782-.091 1.628.195 2.54l.313.703c.104.208.234.416.39.625.157.208.339.377.547.507a9.458 9.458 0 00-.859-.039 38.841 38.841 0 01-.781-.078 40.523 40.523 0 01-.782-.078c-.26-.026-.612-.039-1.054-.039-.756 0-1.927.04-3.516.117.234-.547.417-1.002.547-1.367.156-.39.286-.703.391-.938.104-.286.182-.507.234-.664.312-.755.495-1.614.547-2.578a10.15 10.15 0 00-.196-2.93 9.066 9.066 0 00-.39-1.21 6.387 6.387 0 00-.742-1.368 4.379 4.379 0 00-1.055-1.132 2.545 2.545 0 00-1.367-.547c-.521-.052-1.107.078-1.758.39-.625.313-1.302.886-2.031 1.72-.547.702-.977 1.562-1.289 2.577-.287.86-.482 1.94-.586 3.243-.104 1.275.052 2.773.468 4.492a7.2 7.2 0 00-1.015-.078 19.437 19.437 0 01-.781-.079 28.587 28.587 0 01-.704-.078c-.234 0-.494-.013-.781-.039h-.976a85.185 85.185 0 00-1.368-.078zm41.016-25.625c.495.026 1.029.04 1.602.04.494 0 1.054.012 1.679.038.651 0 1.328-.026 2.032-.078a4.758 4.758 0 00-1.641 1.25 8.863 8.863 0 00-1.133 1.64 11.772 11.772 0 00-.898 2.032c-.13.417-.235 1.159-.313 2.227a98.952 98.952 0 00-.195 3.671c-.026 1.407-.039 2.891-.039 4.454 0 1.562.013 3.06.039 4.492.026 1.406.065 2.656.117 3.75.052 1.094.117 1.862.195 2.304.105.521.235 1.016.391 1.485.13.416.3.846.508 1.289.208.416.469.755.781 1.016l-3.984 1.796a4.368 4.368 0 01-.508-.898 8.406 8.406 0 01-.313-.781 3.425 3.425 0 01-.195-.782 44.43 44.43 0 01-.156-1.015c-.052-.39-.117-.755-.195-1.094a27.552 27.552 0 01-.118-.898c-.026-.235-.026-.378 0-.43.026-.052-.13.182-.468.703-.339.495-.847 1.08-1.524 1.758-.651.65-1.458 1.289-2.422 1.914-.963.599-2.044.977-3.242 1.133-1.224.156-2.357-.078-3.398-.703-1.016-.625-1.888-1.498-2.618-2.618-.729-1.145-1.289-2.46-1.679-3.945a16.103 16.103 0 01-.43-4.61c.052-1.04.287-1.965.703-2.773a7.741 7.741 0 011.563-2.148 10.054 10.054 0 012.109-1.563 17.876 17.876 0 012.266-1.093 13.407 13.407 0 012.109-.625 25.7 25.7 0 011.563-.274c.468-.026 1.002.052 1.601.235.521.156 1.12.416 1.797.78.703.365 1.484.912 2.344 1.641-.156-2.604-.3-4.687-.43-6.25-.13-1.588-.26-2.799-.391-3.632-.13-.99-.247-1.667-.351-2.032-.13-.26-.3-.52-.508-.78a4.27 4.27 0 00-.703-.626 2.778 2.778 0 00-.938-.547c.678.13 1.329.222 1.954.274.625.052 1.198.104 1.718.156.599.052 1.172.091 1.719.117zm-9.805 14.57a2.528 2.528 0 00-1.211.938c-.286.443-.52.977-.703 1.602-.182.599-.312 1.25-.39 1.953a54.35 54.35 0 00-.117 1.992v2.89c0 .157.026.443.078.86.078.39.234.807.468 1.25.235.416.56.794.977 1.133.443.338 1.029.507 1.758.507.599-.052 1.237-.26 1.914-.625.599-.312 1.276-.807 2.031-1.484.781-.703 1.615-1.706 2.5-3.008a144.69 144.69 0 01-.117-2.07c0-.547-.013-.99-.039-1.328-.026-.39-.039-.703-.039-.938v-.586-.507c0-.183.013-.352.039-.508-.729-.521-1.38-.964-1.953-1.328a6.224 6.224 0 00-1.641-.86 3.894 3.894 0 00-1.641-.273c-.546 0-1.184.13-1.914.39zm24.922-11.328c1.823.052 3.334.091 4.532.117H325.574c.052.521.091 1.03.117 1.524.052.469.079.885.079 1.25 0 .443-.013.846-.04 1.21-.026.365-.065.756-.117 1.173a67.68 67.68 0 00-.156 1.172 8.17 8.17 0 01-.273 1.289c-.365-1.407-.86-2.474-1.485-3.203-.599-.73-1.211-1.263-1.836-1.602a5.172 5.172 0 00-2.304-.625c-1.068.052-1.901.143-2.5.273-.599.13-1.068.313-1.407.547a2.592 2.592 0 00-.781.82c-.156.287-.325.613-.508.977-.156.313-.299.794-.429 1.446-.131.546-.261 1.289-.391 2.226-.104.938-.221 2.148-.352 3.633a14.905 14.905 0 001.68-.586c.443-.182.794-.339 1.055-.469.286-.156.495-.3.625-.43.104-.156.26-.442.469-.859.156-.364.364-.86.625-1.484.286-.625.625-1.485 1.015-2.578.052 1.198.078 2.2.078 3.007 0 .782.013 1.42.039 1.914 0 .573.013 1.03.039 1.368v3.711c.026.911.066 2.07.118 3.476-.313-.963-.599-1.719-.86-2.265-.234-.573-.442-1.003-.625-1.29-.208-.338-.39-.572-.547-.703a6.99 6.99 0 00-.742-.156 12.512 12.512 0 00-1.094-.039c-.416 0-.95.065-1.601.195-.078 1.433-.091 2.592-.039 3.477.078.86.182 1.523.312 1.992.13.547.287.938.469 1.172.234.234.703.43 1.406.586.703.13 1.498.182 2.383.156a13.15 13.15 0 002.774-.469c.937-.26 1.77-.69 2.5-1.289a18.209 18.209 0 001.757-1.875c.521-.65 1.094-1.471 1.719-2.46.651-.99 1.289-2.188 1.914-3.594a137.458 137.458 0 00-.234 2.93 25.206 25.206 0 01-.117 1.835l-.118 1.25c0 .313-.039.756-.117 1.328a47.824 47.824 0 01-.273 2.032c-.104.833-.248 1.9-.43 3.203-1.224.026-2.383.052-3.476.078-1.094 0-2.058.013-2.891.039-.99.026-1.901.052-2.734.078-.86 0-1.81.04-2.852.117a110.545 110.545 0 00-7.305.664c.13-1.77.222-3.437.274-5 .078-1.588.13-2.981.156-4.18a97.669 97.669 0 000-3.906c.13-2.994.078-5.416-.156-7.265-.235-1.85-.508-3.034-.821-3.555a7.755 7.755 0 00-.664-.664c-.234-.208-.56-.456-.976-.742a25.549 25.549 0 00-1.563-.977zm26.094 12.344c1.016.026 1.94.04 2.773.04h2.227c.729 0 1.393-.014 1.992-.04.625 0 1.419-.026 2.383-.078.833-.026 1.875-.065 3.125-.117 1.276-.052 2.826-.117 4.648-.196l-.195 3.985a83.896 83.896 0 00-3.672-.195c-.963-.053-1.745-.092-2.343-.118a18.705 18.705 0 00-1.719 0c-.443.026-1.068.065-1.875.118-.677.052-1.602.117-2.774.195-1.145.052-2.604.143-4.375.273l-.195-3.867zm18.125-4.18a41.492 41.492 0 001.523-.156c.443-.052.808-.104 1.094-.156.339-.052.625-.104.86-.156.234-.026.494-.078.781-.157.26-.052.547-.117.859-.195a49.71 49.71 0 001.094-.352l-.234 4.961c.573-.911 1.237-1.601 1.992-2.07.755-.495 1.471-.86 2.148-1.094a8.943 8.943 0 012.422-.507 8.055 8.055 0 012.305.39 6.795 6.795 0 011.797.977c.625.442 1.106 1.093 1.445 1.953.885-.912 1.758-1.615 2.617-2.11.886-.52 1.667-.911 2.344-1.171.807-.287 1.562-.456 2.266-.508.937-.026 1.796.13 2.578.469.807.338 1.51.768 2.109 1.289a6.873 6.873 0 011.445 1.601c.365.547.573 1.029.625 1.445.078.573.039 1.316-.117 2.227a62.071 62.071 0 01-.547 2.734c-.208.912-.403 1.758-.586 2.54-.156.755-.221 1.289-.195 1.601.078.26.26.573.547.938.26.312.638.703 1.133 1.171.521.443 1.263.964 2.226 1.563-.833-.026-1.575-.052-2.226-.078a21.732 21.732 0 01-1.602-.117 42.18 42.18 0 00-1.367-.118 9.92 9.92 0 01-1.133-.078 98.354 98.354 0 01-1.445-.117 93.107 93.107 0 00-1.992-.156c.286-.078.52-.221.703-.43.182-.234.338-.456.469-.664.13-.26.234-.547.312-.86.052-.26.104-.676.156-1.25a36.04 36.04 0 00.117-1.952c.053-.73.079-1.498.079-2.305.026-.807.026-1.576 0-2.305a21.409 21.409 0 00-.157-1.992c-.078-.599-.182-1.055-.312-1.367a1.117 1.117 0 00-.547-.547 2.02 2.02 0 00-.898-.273 2.672 2.672 0 00-1.016.039 2.457 2.457 0 00-.899.312c-.234.182-.546.43-.937.742-.339.287-.781.677-1.328 1.172l-2.07 1.875c-.079 1.64-.144 2.969-.196 3.985-.026.99-.052 1.744-.078 2.265a37.091 37.091 0 00-.039 1.29c-.026.208-.013.403.039.585.052.39.208.755.469 1.094a5.935 5.935 0 00-1.016-.156 69.72 69.72 0 01-.937-.078 12.244 12.244 0 00-1.953 0c-.287.026-.638.065-1.055.117a32.54 32.54 0 00-1.367.117c.208-.13.377-.287.508-.469.13-.182.234-.351.312-.508.104-.182.182-.351.234-.507.026-.157.079-.534.157-1.133.078-.625.13-1.354.156-2.188.026-.833.026-1.706 0-2.617a14.506 14.506 0 00-.274-2.539c-.156-.781-.403-1.42-.742-1.914-.312-.495-.729-.716-1.25-.664a6.63 6.63 0 00-1.914.469c-.547.208-1.133.52-1.758.937-.625.417-1.211.977-1.757 1.68-.105 1.953-.17 3.502-.196 4.648 0 1.146.013 2.018.039 2.617.026.704.052 1.185.078 1.446.027.182.092.364.196.547l.273.546c.13.209.274.404.43.586l-6.211-.312c.208-.104.391-.234.547-.39.156-.183.286-.365.39-.548l.313-.625c.078-.182.143-.611.195-1.289.078-.677.144-1.471.196-2.382.052-.938.091-1.915.117-2.93.052-1.042.078-2.005.078-2.89.026-.912.039-1.68.039-2.305 0-.651-.013-1.042-.039-1.172a2.758 2.758 0 00-.43-.82 4.838 4.838 0 00-.742-.665c-.312-.26-.729-.455-1.25-.586zm37.656 2.696c.13-.157.209-.443.235-.86.052-.442.156-.937.312-1.484.182-.547.482-1.12.899-1.719.416-.599 1.093-1.159 2.031-1.68.911-.52 1.797-.833 2.656-.937a7.032 7.032 0 012.461.117c.781.183 1.51.469 2.188.86.703.39 1.341.82 1.914 1.289.39.312.703.768.937 1.367.234.573.417 1.224.547 1.953.13.73.221 1.497.273 2.305.079.78.131 1.55.157 2.304.026.73.039 1.407.039 2.032.026.599.078 1.093.156 1.484.104.573.286 1.068.547 1.484.26.39.547.73.859 1.016.313.26.625.469.938.625.312.156.586.273.82.352.156.078.3.13.43.156.26.104.442.104.547 0-.157.364-.3.677-.43.937s-.234.482-.313.664a7.783 7.783 0 01-.273.508 2.41 2.41 0 01-.273.43 3.63 3.63 0 01-.313.43c-.13.156-.26.325-.391.507a6.722 6.722 0 01-.976-.468 41.182 41.182 0 01-.781-.508 10.18 10.18 0 01-.782-.547 5.049 5.049 0 01-.664-.625c-.182-.209-.377-.43-.586-.664a3.888 3.888 0 01-.468-.781c-.157.338-.534.82-1.133 1.445-.573.625-1.328 1.198-2.266 1.719-.937.494-2.031.846-3.281 1.054-1.224.209-2.578.065-4.063-.43a7.07 7.07 0 01-1.836-.898 6.715 6.715 0 01-1.484-1.484 6.014 6.014 0 01-.859-1.953c-.157-.756-.144-1.589.039-2.5.182-.912.508-1.68.976-2.305a5.849 5.849 0 011.68-1.523c.651-.391 1.38-.69 2.188-.899.807-.208 1.64-.351 2.5-.43.677-.026 1.354.014 2.031.118.573.104 1.172.3 1.797.586.625.26 1.159.664 1.601 1.21-.026-1.38-.078-2.474-.156-3.28a37.85 37.85 0 00-.156-1.915c-.104-.52-.196-.885-.274-1.094-.13-.182-.273-.39-.429-.625a2.354 2.354 0 00-.508-.625 2.398 2.398 0 00-.781-.507c-.313-.13-.678-.183-1.094-.157-.443.026-.794.144-1.055.352-.26.208-.469.456-.625.742a2.34 2.34 0 00-.234.86c-.026.312-.013.585.039.82.052.156.13.325.234.508.104.156.248.325.43.507.182.183.43.339.742.47a85.83 85.83 0 01-1.602.195 12.72 12.72 0 00-1.21.117c-.391.052-.73.09-1.016.117a9.81 9.81 0 00-1.016.156l-1.25.195a43.52 43.52 0 00-1.718.313c.156-.182.299-.352.429-.508.13-.182.248-.338.352-.469.104-.156.208-.3.312-.43zm5.86 4.648a3.997 3.997 0 00-1.407.352 3.606 3.606 0 00-1.25.82 4.854 4.854 0 00-.937 1.21 3.127 3.127 0 00-.352 1.485c0 .547.131 1.029.391 1.446.286.39.651.716 1.094.976a3.8 3.8 0 001.484.469c.547.052 1.081 0 1.602-.156a4.464 4.464 0 001.406-.86 7.68 7.68 0 001.133-1.328c.312-.495.534-.976.664-1.445.13-.495.143-.899.039-1.211-.208-.677-.677-1.146-1.406-1.406-.73-.287-1.55-.404-2.461-.352zm12.695-6.289l7.187.078c-.416 1.589-.729 2.943-.937 4.063-.182 1.12-.3 2.057-.352 2.812-.104.86-.13 1.589-.078 2.188.078.547.209 1.132.391 1.757.156.521.391 1.12.703 1.797.313.678.729 1.355 1.25 2.032a5.798 5.798 0 00-1.016-.235 17.49 17.49 0 00-1.015-.117 7.652 7.652 0 00-1.094 0c-.365.026-.768.065-1.211.117-.364.052-.807.117-1.328.196a22.43 22.43 0 00-1.641.312c.391-1.172.69-2.187.899-3.047.234-.86.403-1.575.508-2.148.104-.677.169-1.224.195-1.64v-1.759-1.953c0-.625-.013-1.172-.039-1.64-.026-.495-.078-.808-.156-.938l-.391-.39c-.156-.13-.391-.313-.703-.547-.287-.26-.677-.573-1.172-.938zm2.773-6.016c.547-.286 1.094-.364 1.641-.234.573.13 1.016.378 1.328.742.313.365.417.794.313 1.29-.078.494-.495.976-1.25 1.445-.756.442-1.42.599-1.993.468-.572-.13-.976-.403-1.21-.82-.235-.417-.274-.898-.118-1.445.157-.573.586-1.055 1.289-1.446zm7.696 24.57c.26-.39.468-.755.625-1.093.156-.338.286-.625.39-.86.105-.286.183-.546.235-.78.026-.157.039-.613.039-1.368 0-.755-.026-1.706-.078-2.851a272.573 272.573 0 00-.118-3.868c-.026-1.432-.078-2.89-.156-4.375-.052-1.484-.117-2.93-.195-4.335-.052-1.407-.104-2.67-.156-3.79a112.518 112.518 0 00-.157-2.812c-.052-.73-.091-1.146-.117-1.25a1.463 1.463 0 00-.273-.469c-.261-.312-.703-.612-1.328-.898a88.834 88.834 0 003.047-.82c.416-.105.781-.209 1.093-.313l.86-.313c.234-.104.494-.22.781-.351.286-.156.547-.326.781-.508-.13.755-.234 1.484-.312 2.188a82.858 82.858 0 00-.196 1.953 25.531 25.531 0 00-.078 1.953 49.894 49.894 0 00-.234 4.18c0 1.484.013 2.994.039 4.53.026 1.537.078 3.035.156 4.493.078 1.458.156 2.786.235 3.984.104 1.172.195 2.175.273 3.008.104.807.182 1.328.234 1.563.105.39.209.768.313 1.132.104.313.221.639.351.977.131.365.287.651.469.86h-3.789c-.338 0-.664.012-.976.038-.287.026-.586.053-.899.079a7.61 7.61 0 00-.859.117z" fill="#000"/></svg>